<svg id="visual" viewBox="0 0 960 540" width="960" height="540" xmlns="http://www.w3.org/2000/svg" xmlns:xlink="http://www.w3.org/1999/xlink" version="1.1"><rect width="960" height="540" fill="#001829"></rect><g><g transform="translate(175 53)"><path d="M0 -12.8L5.6 -11.6L10 -8L12.5 -2.9L12.5 2.9L10 8L5.6 11.6L0 12.8L-5.6 11.6L-10 8L-12.5 2.9L-12.5 -2.9L-10 -8L-5.6 -11.6Z" fill="#297EA6"></path></g><g transform="translate(243 81)"><path d="M0 -6L2.6 -5.4L4.7 -3.7L5.8 -1.3L5.8 1.3L4.7 3.7L2.6 5.4L0 6L-2.6 5.4L-4.7 3.7L-5.8 1.3L-5.8 -1.3L-4.7 -3.7L-2.6 -5.4Z" fill="#297EA6"></path></g><g transform="translate(84 266)"><path d="M0 -8L3.5 -7.2L6.3 -5L7.8 -1.8L7.8 1.8L6.3 5L3.5 7.2L0 8L-3.5 7.2L-6.3 5L-7.8 1.8L-7.8 -1.8L-6.3 -5L-3.5 -7.2Z" fill="#297EA6"></path></g><g transform="translate(202 524)"><path d="M0 -7L3 -6.3L5.5 -4.4L6.8 -1.6L6.8 1.6L5.5 4.4L3 6.3L0 7L-3 6.3L-5.5 4.4L-6.8 1.6L-6.8 -1.6L-5.5 -4.4L-3 -6.3Z" fill="#297EA6"></path></g><g transform="translate(644 385)"><path d="M0 -3L1.3 -2.7L2.3 -1.9L2.9 -0.7L2.9 0.7L2.3 1.9L1.3 2.7L0 3L-1.3 2.7L-2.3 1.9L-2.9 0.7L-2.9 -0.7L-2.3 -1.9L-1.3 -2.7Z" fill="#297EA6"></path></g><g transform="translate(660 485)"><path d="M0 -6L2.6 -5.4L4.7 -3.7L5.8 -1.3L5.8 1.3L4.7 3.7L2.6 5.4L0 6L-2.6 5.4L-4.7 3.7L-5.8 1.3L-5.8 -1.3L-4.7 -3.7L-2.6 -5.4Z" fill="#297EA6"></path></g><g transform="translate(373 70)"><path d="M0 -9L3.9 -8.1L7 -5.6L8.8 -2L8.8 2L7 5.6L3.9 8.1L0 9L-3.9 8.1L-7 5.6L-8.8 2L-8.8 -2L-7 -5.6L-3.9 -8.1Z" fill="#297EA6"></path></g><g transform="translate(363 431)"><path d="M0 -2L0.9 -1.8L1.6 -1.2L1.9 -0.4L1.9 0.4L1.6 1.2L0.9 1.8L0 2L-0.9 1.8L-1.6 1.2L-1.9 0.4L-1.9 -0.4L-1.6 -1.2L-0.9 -1.8Z" fill="#297EA6"></path></g><g transform="translate(370 324)"><path d="M0 -5L2.2 -4.5L3.9 -3.1L4.9 -1.1L4.9 1.1L3.9 3.1L2.2 4.5L0 5L-2.2 4.5L-3.9 3.1L-4.9 1.1L-4.9 -1.1L-3.9 -3.1L-2.2 -4.5Z" fill="#297EA6"></path></g><g transform="translate(893 499)"><path d="M0 -4L1.7 -3.6L3.1 -2.5L3.9 -0.9L3.9 0.9L3.1 2.5L1.7 3.6L0 4L-1.7 3.6L-3.1 2.5L-3.9 0.9L-3.9 -0.9L-3.1 -2.5L-1.7 -3.6Z" fill="#297EA6"></path></g><g transform="translate(759 518)"><path d="M0 -1L0.4 -0.9L0.8 -0.6L1 -0.2L1 0.2L0.8 0.6L0.4 0.9L0 1L-0.4 0.9L-0.8 0.6L-1 0.2L-1 -0.2L-0.8 -0.6L-0.4 -0.9Z" fill="#297EA6"></path></g><g transform="translate(463 58)"><path d="M0 -11L4.8 -9.9L8.6 -6.9L10.7 -2.4L10.7 2.4L8.6 6.9L4.8 9.9L0 11L-4.8 9.9L-8.6 6.9L-10.7 2.4L-10.7 -2.4L-8.6 -6.9L-4.8 -9.9Z" fill="#297EA6"></path></g><g transform="translate(848 154)"><path d="M0 -3L1.3 -2.7L2.3 -1.9L2.9 -0.7L2.9 0.7L2.3 1.9L1.3 2.7L0 3L-1.3 2.7L-2.3 1.9L-2.9 0.7L-2.9 -0.7L-2.3 -1.9L-1.3 -2.7Z" fill="#297EA6"></path></g><g transform="translate(129 137)"><path d="M0 -5L2.2 -4.5L3.9 -3.1L4.9 -1.1L4.9 1.1L3.9 3.1L2.2 4.5L0 5L-2.2 4.5L-3.9 3.1L-4.9 1.1L-4.9 -1.1L-3.9 -3.1L-2.2 -4.5Z" fill="#297EA6"></path></g><g transform="translate(757 111)"><path d="M0 -2L0.9 -1.8L1.6 -1.2L1.9 -0.4L1.9 0.4L1.6 1.2L0.9 1.8L0 2L-0.9 1.8L-1.6 1.2L-1.9 0.4L-1.9 -0.4L-1.6 -1.2L-0.9 -1.8Z" fill="#297EA6"></path></g><g transform="translate(393 438)"><path d="M0 -7L3 -6.3L5.5 -4.4L6.8 -1.6L6.8 1.6L5.5 4.4L3 6.3L0 7L-3 6.3L-5.5 4.4L-6.8 1.6L-6.8 -1.6L-5.5 -4.4L-3 -6.3Z" fill="#297EA6"></path></g><g transform="translate(587 319)"><path d="M0 -10L4.3 -9L7.8 -6.2L9.7 -2.2L9.7 2.2L7.8 6.2L4.3 9L0 10L-4.3 9L-7.8 6.2L-9.7 2.2L-9.7 -2.2L-7.8 -6.2L-4.3 -9Z" fill="#297EA6"></path></g><g transform="translate(113 50)"><path d="M0 -10L4.3 -9L7.8 -6.2L9.7 -2.2L9.7 2.2L7.8 6.2L4.3 9L0 10L-4.3 9L-7.8 6.2L-9.7 2.2L-9.7 -2.2L-7.8 -6.2L-4.3 -9Z" fill="#297EA6"></path></g><g transform="translate(453 450)"><path d="M0 -3L1.3 -2.7L2.3 -1.9L2.9 -0.7L2.9 0.7L2.3 1.9L1.3 2.7L0 3L-1.3 2.7L-2.3 1.9L-2.9 0.7L-2.9 -0.7L-2.3 -1.9L-1.3 -2.7Z" fill="#297EA6"></path></g><g transform="translate(59 32)"><path d="M0 -11L4.8 -9.9L8.6 -6.9L10.7 -2.4L10.7 2.4L8.6 6.9L4.8 9.9L0 11L-4.8 9.9L-8.6 6.9L-10.7 2.4L-10.7 -2.4L-8.6 -6.9L-4.8 -9.9Z" fill="#297EA6"></path></g><g transform="translate(50 321)"><path d="M0 -8L3.5 -7.2L6.3 -5L7.8 -1.8L7.8 1.8L6.3 5L3.5 7.2L0 8L-3.5 7.2L-6.3 5L-7.8 1.8L-7.8 -1.8L-6.3 -5L-3.5 -7.2Z" fill="#297EA6"></path></g><g transform="translate(617 225)"><path d="M0 -5L2.2 -4.5L3.9 -3.1L4.9 -1.1L4.9 1.1L3.9 3.1L2.2 4.5L0 5L-2.2 4.5L-3.9 3.1L-4.9 1.1L-4.9 -1.1L-3.9 -3.1L-2.2 -4.5Z" fill="#297EA6"></path></g><g transform="translate(454 500)"><path d="M0 -11L4.8 -9.9L8.6 -6.9L10.7 -2.4L10.7 2.4L8.6 6.9L4.8 9.9L0 11L-4.8 9.9L-8.6 6.9L-10.7 2.4L-10.7 -2.4L-8.6 -6.9L-4.8 -9.9Z" fill="#297EA6"></path></g><g transform="translate(630 322)"><path d="M0 -2L0.9 -1.8L1.6 -1.2L1.9 -0.4L1.9 0.4L1.6 1.2L0.9 1.8L0 2L-0.9 1.8L-1.6 1.2L-1.9 0.4L-1.9 -0.4L-1.6 -1.2L-0.9 -1.8Z" fill="#297EA6"></path></g><g transform="translate(770 402)"><path d="M0 -8L3.5 -7.2L6.3 -5L7.8 -1.8L7.8 1.8L6.3 5L3.5 7.2L0 8L-3.5 7.2L-6.3 5L-7.8 1.8L-7.8 -1.8L-6.3 -5L-3.5 -7.2Z" fill="#297EA6"></path></g><g transform="translate(593 32)"><path d="M0 -7L3 -6.3L5.5 -4.4L6.8 -1.6L6.8 1.6L5.5 4.4L3 6.3L0 7L-3 6.3L-5.5 4.4L-6.8 1.6L-6.8 -1.6L-5.5 -4.4L-3 -6.3Z" fill="#297EA6"></path></g><g transform="translate(270 220)"><path d="M0 -5L2.2 -4.5L3.9 -3.1L4.9 -1.1L4.9 1.1L3.9 3.1L2.2 4.5L0 5L-2.2 4.5L-3.9 3.1L-4.9 1.1L-4.9 -1.1L-3.9 -3.1L-2.2 -4.5Z" fill="#297EA6"></path></g><g transform="translate(452 246)"><path d="M0 -4L1.7 -3.6L3.1 -2.5L3.9 -0.9L3.9 0.9L3.1 2.5L1.7 3.6L0 4L-1.7 3.6L-3.1 2.5L-3.9 0.9L-3.9 -0.9L-3.1 -2.5L-1.7 -3.6Z" fill="#297EA6"></path></g><g transform="translate(57 195)"><path d="M0 -5L2.2 -4.5L3.9 -3.1L4.9 -1.1L4.9 1.1L3.9 3.1L2.2 4.5L0 5L-2.2 4.5L-3.9 3.1L-4.9 1.1L-4.9 -1.1L-3.9 -3.1L-2.2 -4.5Z" fill="#297EA6"></path></g><g transform="translate(173 403)"><path d="M0 -11L4.8 -9.9L8.6 -6.9L10.7 -2.4L10.7 2.4L8.6 6.9L4.8 9.9L0 11L-4.8 9.9L-8.6 6.9L-10.7 2.4L-10.7 -2.4L-8.6 -6.9L-4.8 -9.9Z" fill="#297EA6"></path></g><g transform="translate(822 211)"><path d="M0 -8L3.5 -7.2L6.3 -5L7.8 -1.8L7.8 1.8L6.3 5L3.5 7.2L0 8L-3.5 7.2L-6.3 5L-7.8 1.8L-7.8 -1.8L-6.3 -5L-3.5 -7.2Z" fill="#297EA6"></path></g><g transform="translate(568 203)"><path d="M0 -8L3.5 -7.2L6.3 -5L7.8 -1.8L7.8 1.8L6.3 5L3.5 7.2L0 8L-3.5 7.2L-6.3 5L-7.8 1.8L-7.8 -1.8L-6.3 -5L-3.5 -7.2Z" fill="#297EA6"></path></g><g transform="translate(146 30)"><path d="M0 -1L0.4 -0.9L0.8 -0.6L1 -0.2L1 0.2L0.8 0.6L0.4 0.9L0 1L-0.4 0.9L-0.8 0.6L-1 0.2L-1 -0.2L-0.8 -0.6L-0.4 -0.9Z" fill="#297EA6"></path></g><g transform="translate(814 51)"><path d="M0 -3L1.3 -2.7L2.3 -1.9L2.9 -0.7L2.9 0.7L2.3 1.9L1.3 2.7L0 3L-1.3 2.7L-2.3 1.9L-2.9 0.7L-2.9 -0.7L-2.3 -1.9L-1.3 -2.7Z" fill="#297EA6"></path></g><g transform="translate(500 369)"><path d="M0 -7L3 -6.3L5.5 -4.4L6.8 -1.6L6.8 1.6L5.5 4.4L3 6.3L0 7L-3 6.3L-5.5 4.4L-6.8 1.6L-6.8 -1.6L-5.5 -4.4L-3 -6.3Z" fill="#297EA6"></path></g><g transform="translate(799 270)"><path d="M0 -5L2.2 -4.5L3.9 -3.1L4.9 -1.1L4.9 1.1L3.9 3.1L2.2 4.5L0 5L-2.2 4.5L-3.9 3.1L-4.9 1.1L-4.9 -1.1L-3.9 -3.1L-2.2 -4.5Z" fill="#297EA6"></path></g><g transform="translate(905 76)"><path d="M0 -10L4.3 -9L7.8 -6.2L9.7 -2.2L9.7 2.2L7.8 6.2L4.3 9L0 10L-4.3 9L-7.8 6.2L-9.7 2.2L-9.7 -2.2L-7.8 -6.2L-4.3 -9Z" fill="#297EA6"></path></g><g transform="translate(253 51)"><path d="M0 -4L1.7 -3.6L3.1 -2.5L3.9 -0.9L3.9 0.9L3.1 2.5L1.7 3.6L0 4L-1.7 3.6L-3.1 2.5L-3.9 0.9L-3.9 -0.9L-3.1 -2.5L-1.7 -3.6Z" fill="#297EA6"></path></g><g transform="translate(726 237)"><path d="M0 -5L2.2 -4.5L3.9 -3.1L4.9 -1.1L4.9 1.1L3.9 3.1L2.2 4.5L0 5L-2.2 4.5L-3.9 3.1L-4.9 1.1L-4.9 -1.1L-3.9 -3.1L-2.2 -4.5Z" fill="#297EA6"></path></g><g transform="translate(42 282)"><path d="M0 -9L3.9 -8.1L7 -5.6L8.8 -2L8.8 2L7 5.6L3.9 8.1L0 9L-3.9 8.1L-7 5.6L-8.8 2L-8.8 -2L-7 -5.6L-3.9 -8.1Z" fill="#297EA6"></path></g><g transform="translate(646 264)"><path d="M0 -11L4.8 -9.9L8.6 -6.9L10.7 -2.4L10.7 2.4L8.6 6.9L4.8 9.9L0 11L-4.8 9.9L-8.6 6.9L-10.7 2.4L-10.7 -2.4L-8.6 -6.9L-4.8 -9.9Z" fill="#297EA6"></path></g><g transform="translate(622 285)"><path d="M0 -3L1.3 -2.7L2.3 -1.9L2.9 -0.7L2.9 0.7L2.3 1.9L1.3 2.7L0 3L-1.3 2.7L-2.3 1.9L-2.9 0.7L-2.9 -0.7L-2.3 -1.9L-1.3 -2.7Z" fill="#297EA6"></path></g><g transform="translate(78 467)"><path d="M0 -11L4.8 -9.9L8.6 -6.9L10.7 -2.4L10.7 2.4L8.6 6.9L4.8 9.9L0 11L-4.8 9.9L-8.6 6.9L-10.7 2.4L-10.7 -2.4L-8.6 -6.9L-4.8 -9.9Z" fill="#297EA6"></path></g><g transform="translate(15 75)"><path d="M0 -2L0.9 -1.8L1.6 -1.2L1.9 -0.4L1.9 0.4L1.6 1.2L0.9 1.8L0 2L-0.9 1.8L-1.6 1.2L-1.9 0.4L-1.9 -0.4L-1.6 -1.2L-0.9 -1.8Z" fill="#297EA6"></path></g><g transform="translate(584 56)"><path d="M0 -8L3.5 -7.2L6.3 -5L7.8 -1.8L7.8 1.8L6.3 5L3.5 7.2L0 8L-3.5 7.2L-6.3 5L-7.8 1.8L-7.8 -1.8L-6.3 -5L-3.5 -7.2Z" fill="#297EA6"></path></g><g transform="translate(185 286)"><path d="M0 -8L3.5 -7.2L6.3 -5L7.8 -1.8L7.8 1.8L6.3 5L3.5 7.2L0 8L-3.5 7.2L-6.3 5L-7.8 1.8L-7.8 -1.8L-6.3 -5L-3.5 -7.2Z" fill="#297EA6"></path></g><g transform="translate(150 154)"><path d="M0 -7L3 -6.3L5.5 -4.4L6.8 -1.6L6.8 1.6L5.5 4.4L3 6.3L0 7L-3 6.3L-5.5 4.4L-6.8 1.6L-6.8 -1.6L-5.5 -4.4L-3 -6.3Z" fill="#297EA6"></path></g><g transform="translate(52 420)"><path d="M0 -10L4.3 -9L7.8 -6.2L9.7 -2.2L9.7 2.2L7.8 6.2L4.3 9L0 10L-4.3 9L-7.8 6.2L-9.7 2.2L-9.7 -2.2L-7.8 -6.2L-4.3 -9Z" fill="#297EA6"></path></g><g transform="translate(874 214)"><path d="M0 -3L1.3 -2.7L2.3 -1.9L2.9 -0.7L2.9 0.7L2.3 1.9L1.3 2.7L0 3L-1.3 2.7L-2.3 1.9L-2.9 0.7L-2.9 -0.7L-2.3 -1.9L-1.3 -2.7Z" fill="#297EA6"></path></g><g transform="translate(320 227)"><path d="M0 -4L1.7 -3.6L3.1 -2.5L3.9 -0.9L3.9 0.9L3.1 2.5L1.7 3.6L0 4L-1.7 3.6L-3.1 2.5L-3.9 0.9L-3.9 -0.9L-3.1 -2.5L-1.7 -3.6Z" fill="#297EA6"></path></g><g transform="translate(302 304)"><path d="M0 -6L2.6 -5.4L4.7 -3.7L5.8 -1.3L5.8 1.3L4.7 3.7L2.6 5.4L0 6L-2.6 5.4L-4.7 3.7L-5.8 1.3L-5.8 -1.3L-4.7 -3.7L-2.6 -5.4Z" fill="#297EA6"></path></g><g transform="translate(841 354)"><path d="M0 -8L3.5 -7.2L6.3 -5L7.8 -1.8L7.8 1.8L6.3 5L3.5 7.2L0 8L-3.5 7.2L-6.3 5L-7.8 1.8L-7.8 -1.8L-6.3 -5L-3.5 -7.2Z" fill="#297EA6"></path></g><g transform="translate(756 281)"><path d="M0 -6L2.6 -5.4L4.7 -3.7L5.8 -1.3L5.8 1.3L4.7 3.7L2.6 5.4L0 6L-2.6 5.4L-4.7 3.7L-5.8 1.3L-5.8 -1.3L-4.7 -3.7L-2.6 -5.4Z" fill="#297EA6"></path></g><g transform="translate(529 403)"><path d="M0 -6L2.6 -5.4L4.7 -3.7L5.8 -1.3L5.8 1.3L4.7 3.7L2.6 5.4L0 6L-2.6 5.4L-4.7 3.7L-5.8 1.3L-5.8 -1.3L-4.7 -3.7L-2.6 -5.4Z" fill="#297EA6"></path></g><g transform="translate(138 436)"><path d="M0 -2L0.9 -1.8L1.6 -1.2L1.9 -0.4L1.9 0.4L1.6 1.2L0.9 1.8L0 2L-0.9 1.8L-1.6 1.2L-1.9 0.4L-1.9 -0.4L-1.6 -1.2L-0.9 -1.8Z" fill="#297EA6"></path></g><g transform="translate(58 252)"><path d="M0 -1L0.4 -0.9L0.8 -0.6L1 -0.2L1 0.2L0.8 0.6L0.4 0.9L0 1L-0.4 0.9L-0.8 0.6L-1 0.2L-1 -0.2L-0.8 -0.6L-0.4 -0.9Z" fill="#297EA6"></path></g><g transform="translate(685 352)"><path d="M0 -8L3.5 -7.2L6.3 -5L7.8 -1.8L7.8 1.8L6.3 5L3.5 7.2L0 8L-3.5 7.2L-6.3 5L-7.8 1.8L-7.8 -1.8L-6.3 -5L-3.5 -7.2Z" fill="#297EA6"></path></g><g transform="translate(784 215)"><path d="M0 -6L2.6 -5.4L4.7 -3.7L5.8 -1.3L5.8 1.3L4.7 3.7L2.6 5.4L0 6L-2.6 5.4L-4.7 3.7L-5.8 1.3L-5.8 -1.3L-4.7 -3.7L-2.6 -5.4Z" fill="#297EA6"></path></g><g transform="translate(648 133)"><path d="M0 -3L1.3 -2.7L2.3 -1.9L2.9 -0.7L2.9 0.7L2.3 1.9L1.3 2.7L0 3L-1.3 2.7L-2.3 1.9L-2.9 0.7L-2.9 -0.7L-2.3 -1.9L-1.3 -2.7Z" fill="#297EA6"></path></g><g transform="translate(103 473)"><path d="M0 -9L3.9 -8.1L7 -5.6L8.8 -2L8.8 2L7 5.6L3.9 8.1L0 9L-3.9 8.1L-7 5.6L-8.8 2L-8.8 -2L-7 -5.6L-3.9 -8.1Z" fill="#297EA6"></path></g><g transform="translate(276 399)"><path d="M0 -8L3.5 -7.2L6.3 -5L7.8 -1.8L7.8 1.8L6.3 5L3.5 7.2L0 8L-3.5 7.2L-6.3 5L-7.8 1.8L-7.8 -1.8L-6.3 -5L-3.5 -7.2Z" fill="#297EA6"></path></g><g transform="translate(910 206)"><path d="M0 -9L3.9 -8.1L7 -5.6L8.8 -2L8.8 2L7 5.6L3.9 8.1L0 9L-3.9 8.1L-7 5.6L-8.8 2L-8.8 -2L-7 -5.6L-3.9 -8.1Z" fill="#297EA6"></path></g><g transform="translate(742 492)"><path d="M0 -2L0.9 -1.8L1.6 -1.2L1.9 -0.4L1.9 0.4L1.6 1.2L0.9 1.8L0 2L-0.9 1.8L-1.6 1.2L-1.9 0.4L-1.9 -0.4L-1.6 -1.2L-0.9 -1.8Z" fill="#297EA6"></path></g><g transform="translate(138 471)"><path d="M0 -9L3.9 -8.1L7 -5.6L8.8 -2L8.8 2L7 5.6L3.9 8.1L0 9L-3.9 8.1L-7 5.6L-8.8 2L-8.8 -2L-7 -5.6L-3.9 -8.1Z" fill="#297EA6"></path></g><g transform="translate(707 167)"><path d="M0 -10L4.3 -9L7.8 -6.2L9.7 -2.2L9.7 2.2L7.8 6.2L4.3 9L0 10L-4.3 9L-7.8 6.2L-9.7 2.2L-9.7 -2.2L-7.8 -6.2L-4.3 -9Z" fill="#297EA6"></path></g><g transform="translate(576 147)"><path d="M0 -8L3.5 -7.2L6.3 -5L7.8 -1.8L7.8 1.8L6.3 5L3.5 7.2L0 8L-3.5 7.2L-6.3 5L-7.8 1.8L-7.8 -1.8L-6.3 -5L-3.5 -7.2Z" fill="#297EA6"></path></g><g transform="translate(393 286)"><path d="M0 -8L3.5 -7.2L6.3 -5L7.8 -1.8L7.8 1.8L6.3 5L3.5 7.2L0 8L-3.5 7.2L-6.3 5L-7.8 1.8L-7.8 -1.8L-6.3 -5L-3.5 -7.2Z" fill="#297EA6"></path></g><g transform="translate(513 462)"><path d="M0 -4L1.7 -3.6L3.1 -2.5L3.9 -0.9L3.9 0.9L3.1 2.5L1.7 3.6L0 4L-1.7 3.6L-3.1 2.5L-3.9 0.9L-3.9 -0.9L-3.1 -2.5L-1.7 -3.6Z" fill="#297EA6"></path></g><g transform="translate(242 173)"><path d="M0 -3L1.3 -2.7L2.3 -1.9L2.9 -0.7L2.9 0.7L2.3 1.9L1.3 2.7L0 3L-1.3 2.7L-2.3 1.9L-2.9 0.7L-2.9 -0.7L-2.3 -1.9L-1.3 -2.7Z" fill="#297EA6"></path></g><g transform="translate(166 314)"><path d="M0 -6L2.6 -5.4L4.7 -3.7L5.8 -1.3L5.8 1.3L4.7 3.7L2.6 5.4L0 6L-2.6 5.4L-4.7 3.7L-5.8 1.3L-5.8 -1.3L-4.7 -3.7L-2.6 -5.4Z" fill="#297EA6"></path></g><g transform="translate(500 32)"><path d="M0 -8L3.5 -7.2L6.3 -5L7.8 -1.8L7.8 1.8L6.3 5L3.5 7.2L0 8L-3.5 7.2L-6.3 5L-7.8 1.8L-7.8 -1.8L-6.3 -5L-3.5 -7.2Z" fill="#297EA6"></path></g><g transform="translate(545 294)"><path d="M0 -10L4.3 -9L7.8 -6.2L9.7 -2.2L9.7 2.2L7.8 6.2L4.3 9L0 10L-4.3 9L-7.8 6.2L-9.7 2.2L-9.7 -2.2L-7.8 -6.2L-4.3 -9Z" fill="#297EA6"></path></g><g transform="translate(478 429)"><path d="M0 -5L2.2 -4.5L3.9 -3.1L4.9 -1.1L4.9 1.1L3.9 3.1L2.2 4.5L0 5L-2.2 4.5L-3.9 3.1L-4.9 1.1L-4.9 -1.1L-3.9 -3.1L-2.2 -4.5Z" fill="#297EA6"></path></g><g transform="translate(118 413)"><path d="M0 -3L1.3 -2.7L2.3 -1.9L2.9 -0.7L2.9 0.7L2.3 1.9L1.3 2.7L0 3L-1.3 2.7L-2.3 1.9L-2.9 0.7L-2.9 -0.7L-2.3 -1.9L-1.3 -2.7Z" fill="#297EA6"></path></g><g transform="translate(288 119)"><path d="M0 -8L3.5 -7.2L6.3 -5L7.8 -1.8L7.8 1.8L6.3 5L3.5 7.2L0 8L-3.5 7.2L-6.3 5L-7.8 1.8L-7.8 -1.8L-6.3 -5L-3.5 -7.2Z" fill="#297EA6"></path></g><g transform="translate(315 446)"><path d="M0 -8L3.5 -7.2L6.3 -5L7.8 -1.8L7.8 1.8L6.3 5L3.5 7.2L0 8L-3.5 7.2L-6.3 5L-7.8 1.8L-7.8 -1.8L-6.3 -5L-3.5 -7.2Z" fill="#297EA6"></path></g><g transform="translate(645 464)"><path d="M0 -4L1.7 -3.6L3.1 -2.5L3.9 -0.9L3.9 0.9L3.1 2.5L1.7 3.6L0 4L-1.7 3.6L-3.1 2.5L-3.9 0.9L-3.9 -0.9L-3.1 -2.5L-1.7 -3.6Z" fill="#297EA6"></path></g><g transform="translate(859 96)"><path d="M0 -9L3.9 -8.1L7 -5.6L8.8 -2L8.8 2L7 5.6L3.9 8.1L0 9L-3.9 8.1L-7 5.6L-8.8 2L-8.8 -2L-7 -5.6L-3.9 -8.1Z" fill="#297EA6"></path></g><g transform="translate(816 411)"><path d="M0 -8L3.5 -7.2L6.3 -5L7.8 -1.8L7.8 1.8L6.3 5L3.5 7.2L0 8L-3.5 7.2L-6.3 5L-7.8 1.8L-7.8 -1.8L-6.3 -5L-3.5 -7.2Z" fill="#297EA6"></path></g><g transform="translate(305 347)"><path d="M0 -11L4.8 -9.9L8.6 -6.9L10.7 -2.4L10.7 2.4L8.6 6.9L4.8 9.9L0 11L-4.8 9.9L-8.6 6.9L-10.7 2.4L-10.7 -2.4L-8.6 -6.9L-4.8 -9.9Z" fill="#297EA6"></path></g><g transform="translate(94 242)"><path d="M0 -5L2.2 -4.5L3.9 -3.1L4.9 -1.1L4.9 1.1L3.9 3.1L2.2 4.5L0 5L-2.2 4.5L-3.9 3.1L-4.9 1.1L-4.9 -1.1L-3.9 -3.1L-2.2 -4.5Z" fill="#297EA6"></path></g><g transform="translate(417 207)"><path d="M0 -5L2.2 -4.5L3.9 -3.1L4.9 -1.1L4.9 1.1L3.9 3.1L2.2 4.5L0 5L-2.2 4.5L-3.9 3.1L-4.9 1.1L-4.9 -1.1L-3.9 -3.1L-2.2 -4.5Z" fill="#297EA6"></path></g><g transform="translate(457 215)"><path d="M0 -11L4.8 -9.9L8.6 -6.9L10.7 -2.4L10.7 2.4L8.6 6.9L4.8 9.9L0 11L-4.8 9.9L-8.6 6.9L-10.7 2.4L-10.7 -2.4L-8.6 -6.9L-4.8 -9.9Z" fill="#297EA6"></path></g><g transform="translate(879 305)"><path d="M0 -4L1.7 -3.6L3.1 -2.5L3.9 -0.9L3.9 0.9L3.1 2.5L1.7 3.6L0 4L-1.7 3.6L-3.1 2.5L-3.9 0.9L-3.9 -0.9L-3.1 -2.5L-1.7 -3.6Z" fill="#297EA6"></path></g><g transform="translate(624 68)"><path d="M0 -5L2.2 -4.5L3.9 -3.1L4.9 -1.1L4.9 1.1L3.9 3.1L2.2 4.5L0 5L-2.2 4.5L-3.9 3.1L-4.9 1.1L-4.9 -1.1L-3.9 -3.1L-2.2 -4.5Z" fill="#297EA6"></path></g><g transform="translate(257 498)"><path d="M0 -9L3.9 -8.1L7 -5.6L8.8 -2L8.8 2L7 5.6L3.9 8.1L0 9L-3.9 8.1L-7 5.6L-8.8 2L-8.8 -2L-7 -5.6L-3.9 -8.1Z" fill="#297EA6"></path></g><g transform="translate(678 390)"><path d="M0 -5L2.2 -4.5L3.9 -3.1L4.9 -1.1L4.9 1.1L3.9 3.1L2.2 4.5L0 5L-2.2 4.5L-3.9 3.1L-4.9 1.1L-4.9 -1.1L-3.9 -3.1L-2.2 -4.5Z" fill="#297EA6"></path></g><g transform="translate(70 339)"><path d="M0 -2L0.9 -1.8L1.6 -1.2L1.9 -0.4L1.9 0.4L1.6 1.2L0.9 1.8L0 2L-0.9 1.8L-1.6 1.2L-1.9 0.4L-1.9 -0.4L-1.6 -1.2L-0.9 -1.8Z" fill="#297EA6"></path></g><g transform="translate(159 214)"><path d="M0 -2L0.9 -1.8L1.6 -1.2L1.9 -0.4L1.9 0.4L1.6 1.2L0.9 1.8L0 2L-0.9 1.8L-1.6 1.2L-1.9 0.4L-1.9 -0.4L-1.6 -1.2L-0.9 -1.8Z" fill="#297EA6"></path></g><g transform="translate(695 143)"><path d="M0 -1L0.4 -0.9L0.8 -0.6L1 -0.2L1 0.2L0.8 0.6L0.4 0.9L0 1L-0.4 0.9L-0.8 0.6L-1 0.2L-1 -0.2L-0.8 -0.6L-0.4 -0.9Z" fill="#297EA6"></path></g><g transform="translate(608 450)"><path d="M0 -11L4.8 -9.9L8.6 -6.9L10.7 -2.4L10.7 2.4L8.6 6.9L4.8 9.9L0 11L-4.8 9.9L-8.6 6.9L-10.7 2.4L-10.7 -2.4L-8.6 -6.9L-4.8 -9.9Z" fill="#297EA6"></path></g><g transform="translate(552 122)"><path d="M0 -5L2.2 -4.5L3.9 -3.1L4.9 -1.1L4.9 1.1L3.9 3.1L2.2 4.5L0 5L-2.2 4.5L-3.9 3.1L-4.9 1.1L-4.9 -1.1L-3.9 -3.1L-2.2 -4.5Z" fill="#297EA6"></path></g><g transform="translate(254 463)"><path d="M0 -9L3.9 -8.1L7 -5.6L8.8 -2L8.8 2L7 5.6L3.9 8.1L0 9L-3.9 8.1L-7 5.6L-8.8 2L-8.8 -2L-7 -5.6L-3.9 -8.1Z" fill="#297EA6"></path></g><g transform="translate(125 230)"><path d="M0 -9L3.9 -8.1L7 -5.6L8.8 -2L8.8 2L7 5.6L3.9 8.1L0 9L-3.9 8.1L-7 5.6L-8.8 2L-8.8 -2L-7 -5.6L-3.9 -8.1Z" fill="#297EA6"></path></g><g transform="translate(894 156)"><path d="M0 -7L3 -6.3L5.5 -4.4L6.8 -1.6L6.8 1.6L5.5 4.4L3 6.3L0 7L-3 6.3L-5.5 4.4L-6.8 1.6L-6.8 -1.6L-5.5 -4.4L-3 -6.3Z" fill="#297EA6"></path></g><g transform="translate(341 295)"><path d="M0 -9L3.9 -8.1L7 -5.6L8.8 -2L8.8 2L7 5.6L3.9 8.1L0 9L-3.9 8.1L-7 5.6L-8.8 2L-8.8 -2L-7 -5.6L-3.9 -8.1Z" fill="#297EA6"></path></g><g transform="translate(657 301)"><path d="M0 -7L3 -6.3L5.5 -4.4L6.8 -1.6L6.8 1.6L5.5 4.4L3 6.3L0 7L-3 6.3L-5.5 4.4L-6.8 1.6L-6.8 -1.6L-5.5 -4.4L-3 -6.3Z" fill="#297EA6"></path></g><g transform="translate(430 523)"><path d="M0 -8L3.5 -7.2L6.3 -5L7.8 -1.8L7.8 1.8L6.3 5L3.5 7.2L0 8L-3.5 7.2L-6.3 5L-7.8 1.8L-7.8 -1.8L-6.3 -5L-3.5 -7.2Z" fill="#297EA6"></path></g><g transform="translate(784 291)"><path d="M0 -10L4.3 -9L7.8 -6.2L9.7 -2.2L9.7 2.2L7.8 6.2L4.3 9L0 10L-4.3 9L-7.8 6.2L-9.7 2.2L-9.7 -2.2L-7.8 -6.2L-4.3 -9Z" fill="#297EA6"></path></g><g transform="translate(314 91)"><path d="M0 -5L2.2 -4.5L3.9 -3.1L4.9 -1.1L4.9 1.1L3.9 3.1L2.2 4.5L0 5L-2.2 4.5L-3.9 3.1L-4.9 1.1L-4.9 -1.1L-3.9 -3.1L-2.2 -4.5Z" fill="#297EA6"></path></g><g transform="translate(715 68)"><path d="M0 -2L0.9 -1.8L1.6 -1.2L1.9 -0.4L1.9 0.4L1.6 1.2L0.9 1.8L0 2L-0.9 1.8L-1.6 1.2L-1.9 0.4L-1.9 -0.4L-1.6 -1.2L-0.9 -1.8Z" fill="#297EA6"></path></g><g transform="translate(804 482)"><path d="M0 -3L1.3 -2.7L2.3 -1.9L2.9 -0.7L2.9 0.7L2.3 1.9L1.3 2.7L0 3L-1.3 2.7L-2.3 1.9L-2.9 0.7L-2.9 -0.7L-2.3 -1.9L-1.3 -2.7Z" fill="#297EA6"></path></g><g transform="translate(677 253)"><path d="M0 -8L3.5 -7.2L6.3 -5L7.8 -1.8L7.8 1.8L6.3 5L3.5 7.2L0 8L-3.5 7.2L-6.3 5L-7.8 1.8L-7.8 -1.8L-6.3 -5L-3.5 -7.2Z" fill="#297EA6"></path></g><g transform="translate(336 379)"><path d="M0 -10L4.3 -9L7.8 -6.2L9.7 -2.2L9.7 2.2L7.8 6.2L4.3 9L0 10L-4.3 9L-7.8 6.2L-9.7 2.2L-9.7 -2.2L-7.8 -6.2L-4.3 -9Z" fill="#297EA6"></path></g><g transform="translate(439 73)"><path d="M0 -5L2.2 -4.5L3.9 -3.1L4.9 -1.1L4.9 1.1L3.9 3.1L2.2 4.5L0 5L-2.2 4.5L-3.9 3.1L-4.9 1.1L-4.9 -1.1L-3.9 -3.1L-2.2 -4.5Z" fill="#297EA6"></path></g><g transform="translate(244 382)"><path d="M0 -4L1.7 -3.6L3.1 -2.5L3.9 -0.9L3.9 0.9L3.1 2.5L1.7 3.6L0 4L-1.7 3.6L-3.1 2.5L-3.9 0.9L-3.9 -0.9L-3.1 -2.5L-1.7 -3.6Z" fill="#297EA6"></path></g><g transform="translate(885 97)"><path d="M0 -2L0.9 -1.8L1.6 -1.2L1.9 -0.4L1.9 0.4L1.6 1.2L0.9 1.8L0 2L-0.9 1.8L-1.6 1.2L-1.9 0.4L-1.9 -0.4L-1.6 -1.2L-0.9 -1.8Z" fill="#297EA6"></path></g><g transform="translate(137 267)"><path d="M0 -3L1.3 -2.7L2.3 -1.9L2.9 -0.7L2.9 0.7L2.3 1.9L1.3 2.7L0 3L-1.3 2.7L-2.3 1.9L-2.9 0.7L-2.9 -0.7L-2.3 -1.9L-1.3 -2.7Z" fill="#297EA6"></path></g><g transform="translate(778 183)"><path d="M0 -2L0.9 -1.8L1.6 -1.2L1.9 -0.4L1.9 0.4L1.6 1.2L0.9 1.8L0 2L-0.9 1.8L-1.6 1.2L-1.9 0.4L-1.9 -0.4L-1.6 -1.2L-0.9 -1.8Z" fill="#297EA6"></path></g><g transform="translate(539 238)"><path d="M0 -11L4.8 -9.9L8.6 -6.9L10.7 -2.4L10.7 2.4L8.6 6.9L4.8 9.9L0 11L-4.8 9.9L-8.6 6.9L-10.7 2.4L-10.7 -2.4L-8.6 -6.9L-4.8 -9.9Z" fill="#297EA6"></path></g><g transform="translate(869 182)"><path d="M0 -2L0.9 -1.8L1.6 -1.2L1.9 -0.4L1.9 0.4L1.6 1.2L0.9 1.8L0 2L-0.9 1.8L-1.6 1.2L-1.9 0.4L-1.9 -0.4L-1.6 -1.2L-0.9 -1.8Z" fill="#297EA6"></path></g><g transform="translate(386 157)"><path d="M0 -3L1.3 -2.7L2.3 -1.9L2.9 -0.7L2.9 0.7L2.3 1.9L1.3 2.7L0 3L-1.3 2.7L-2.3 1.9L-2.9 0.7L-2.9 -0.7L-2.3 -1.9L-1.3 -2.7Z" fill="#297EA6"></path></g><g transform="translate(291 465)"><path d="M0 -6L2.6 -5.4L4.7 -3.7L5.8 -1.3L5.8 1.3L4.7 3.7L2.6 5.4L0 6L-2.6 5.4L-4.7 3.7L-5.8 1.3L-5.8 -1.3L-4.7 -3.7L-2.6 -5.4Z" fill="#297EA6"></path></g><g transform="translate(388 108)"><path d="M0 -11L4.8 -9.9L8.6 -6.9L10.7 -2.4L10.7 2.4L8.6 6.9L4.8 9.9L0 11L-4.8 9.9L-8.6 6.9L-10.7 2.4L-10.7 -2.4L-8.6 -6.9L-4.8 -9.9Z" fill="#297EA6"></path></g><g transform="translate(204 317)"><path d="M0 -1L0.4 -0.9L0.8 -0.6L1 -0.2L1 0.2L0.8 0.6L0.4 0.9L0 1L-0.4 0.9L-0.8 0.6L-1 0.2L-1 -0.2L-0.8 -0.6L-0.4 -0.9Z" fill="#297EA6"></path></g><g transform="translate(921 247)"><path d="M0 -2L0.9 -1.8L1.6 -1.2L1.9 -0.4L1.9 0.4L1.6 1.2L0.9 1.8L0 2L-0.9 1.8L-1.6 1.2L-1.9 0.4L-1.9 -0.4L-1.6 -1.2L-0.9 -1.8Z" fill="#297EA6"></path></g><g transform="translate(193 449)"><path d="M0 -6L2.6 -5.4L4.7 -3.7L5.8 -1.3L5.8 1.3L4.7 3.7L2.6 5.4L0 6L-2.6 5.4L-4.7 3.7L-5.8 1.3L-5.8 -1.3L-4.7 -3.7L-2.6 -5.4Z" fill="#297EA6"></path></g><g transform="translate(830 383)"><path d="M0 -6L2.6 -5.4L4.7 -3.7L5.8 -1.3L5.8 1.3L4.7 3.7L2.6 5.4L0 6L-2.6 5.4L-4.7 3.7L-5.8 1.3L-5.8 -1.3L-4.7 -3.7L-2.6 -5.4Z" fill="#297EA6"></path></g><g transform="translate(736 405)"><path d="M0 -1L0.4 -0.9L0.8 -0.6L1 -0.2L1 0.2L0.8 0.6L0.4 0.9L0 1L-0.4 0.9L-0.8 0.6L-1 0.2L-1 -0.2L-0.8 -0.6L-0.4 -0.9Z" fill="#297EA6"></path></g><g transform="translate(780 42)"><path d="M0 -11L4.8 -9.9L8.6 -6.9L10.7 -2.4L10.7 2.4L8.6 6.9L4.8 9.9L0 11L-4.8 9.9L-8.6 6.9L-10.7 2.4L-10.7 -2.4L-8.6 -6.9L-4.8 -9.9Z" fill="#297EA6"></path></g><g transform="translate(393 27)"><path d="M0 -3L1.3 -2.7L2.3 -1.9L2.9 -0.7L2.9 0.7L2.3 1.9L1.3 2.7L0 3L-1.3 2.7L-2.3 1.9L-2.9 0.7L-2.9 -0.7L-2.3 -1.9L-1.3 -2.7Z" fill="#297EA6"></path></g><g transform="translate(687 195)"><path d="M0 -5L2.2 -4.5L3.9 -3.1L4.9 -1.1L4.9 1.1L3.9 3.1L2.2 4.5L0 5L-2.2 4.5L-3.9 3.1L-4.9 1.1L-4.9 -1.1L-3.9 -3.1L-2.2 -4.5Z" fill="#297EA6"></path></g><g transform="translate(650 30)"><path d="M0 -7L3 -6.3L5.5 -4.4L6.8 -1.6L6.8 1.6L5.5 4.4L3 6.3L0 7L-3 6.3L-5.5 4.4L-6.8 1.6L-6.8 -1.6L-5.5 -4.4L-3 -6.3Z" fill="#297EA6"></path></g><g transform="translate(944 178)"><path d="M0 -2L0.9 -1.8L1.6 -1.2L1.9 -0.4L1.9 0.4L1.6 1.2L0.9 1.8L0 2L-0.9 1.8L-1.6 1.2L-1.9 0.4L-1.9 -0.4L-1.6 -1.2L-0.9 -1.8Z" fill="#297EA6"></path></g><g transform="translate(242 127)"><path d="M0 -1L0.4 -0.9L0.8 -0.6L1 -0.2L1 0.2L0.8 0.6L0.4 0.9L0 1L-0.4 0.9L-0.8 0.6L-1 0.2L-1 -0.2L-0.8 -0.6L-0.4 -0.9Z" fill="#297EA6"></path></g><g transform="translate(856 39)"><path d="M0 -5L2.2 -4.5L3.9 -3.1L4.9 -1.1L4.9 1.1L3.9 3.1L2.2 4.5L0 5L-2.2 4.5L-3.9 3.1L-4.9 1.1L-4.9 -1.1L-3.9 -3.1L-2.2 -4.5Z" fill="#297EA6"></path></g><g transform="translate(291 181)"><path d="M0 -5L2.2 -4.5L3.9 -3.1L4.9 -1.1L4.9 1.1L3.9 3.1L2.2 4.5L0 5L-2.2 4.5L-3.9 3.1L-4.9 1.1L-4.9 -1.1L-3.9 -3.1L-2.2 -4.5Z" fill="#297EA6"></path></g><g transform="translate(79 297)"><path d="M0 -4L1.7 -3.6L3.1 -2.5L3.9 -0.9L3.9 0.9L3.1 2.5L1.7 3.6L0 4L-1.7 3.6L-3.1 2.5L-3.9 0.9L-3.9 -0.9L-3.1 -2.5L-1.7 -3.6Z" fill="#297EA6"></path></g><g transform="translate(766 240)"><path d="M0 -4L1.7 -3.6L3.1 -2.5L3.9 -0.9L3.9 0.9L3.1 2.5L1.7 3.6L0 4L-1.7 3.6L-3.1 2.5L-3.9 0.9L-3.9 -0.9L-3.1 -2.5L-1.7 -3.6Z" fill="#297EA6"></path></g><g transform="translate(444 368)"><path d="M0 -11L4.8 -9.9L8.6 -6.9L10.7 -2.4L10.7 2.4L8.6 6.9L4.8 9.9L0 11L-4.8 9.9L-8.6 6.9L-10.7 2.4L-10.7 -2.4L-8.6 -6.9L-4.8 -9.9Z" fill="#297EA6"></path></g><g transform="translate(661 189)"><path d="M0 -9L3.9 -8.1L7 -5.6L8.8 -2L8.8 2L7 5.6L3.9 8.1L0 9L-3.9 8.1L-7 5.6L-8.8 2L-8.8 -2L-7 -5.6L-3.9 -8.1Z" fill="#297EA6"></path></g><g transform="translate(911 411)"><path d="M0 -11L4.8 -9.9L8.6 -6.9L10.7 -2.4L10.7 2.4L8.6 6.9L4.8 9.9L0 11L-4.8 9.9L-8.6 6.9L-10.7 2.4L-10.7 -2.4L-8.6 -6.9L-4.8 -9.9Z" fill="#297EA6"></path></g><g transform="translate(312 37)"><path d="M0 -11L4.8 -9.9L8.6 -6.9L10.7 -2.4L10.7 2.4L8.6 6.9L4.8 9.9L0 11L-4.8 9.9L-8.6 6.9L-10.7 2.4L-10.7 -2.4L-8.6 -6.9L-4.8 -9.9Z" fill="#297EA6"></path></g><g transform="translate(336 331)"><path d="M0 -4L1.7 -3.6L3.1 -2.5L3.9 -0.9L3.9 0.9L3.1 2.5L1.7 3.6L0 4L-1.7 3.6L-3.1 2.5L-3.9 0.9L-3.9 -0.9L-3.1 -2.5L-1.7 -3.6Z" fill="#297EA6"></path></g><g transform="translate(705 309)"><path d="M0 -2L0.9 -1.8L1.6 -1.2L1.9 -0.4L1.9 0.4L1.6 1.2L0.9 1.8L0 2L-0.9 1.8L-1.6 1.2L-1.9 0.4L-1.9 -0.4L-1.6 -1.2L-0.9 -1.8Z" fill="#297EA6"></path></g><g transform="translate(584 416)"><path d="M0 -9L3.9 -8.1L7 -5.6L8.8 -2L8.8 2L7 5.6L3.9 8.1L0 9L-3.9 8.1L-7 5.6L-8.8 2L-8.8 -2L-7 -5.6L-3.9 -8.1Z" fill="#297EA6"></path></g><g transform="translate(31 490)"><path d="M0 -10L4.3 -9L7.8 -6.2L9.7 -2.2L9.7 2.2L7.8 6.2L4.3 9L0 10L-4.3 9L-7.8 6.2L-9.7 2.2L-9.7 -2.2L-7.8 -6.2L-4.3 -9Z" fill="#297EA6"></path></g><g transform="translate(168 252)"><path d="M0 -3L1.3 -2.7L2.3 -1.9L2.9 -0.7L2.9 0.7L2.3 1.9L1.3 2.7L0 3L-1.3 2.7L-2.3 1.9L-2.9 0.7L-2.9 -0.7L-2.3 -1.9L-1.3 -2.7Z" fill="#297EA6"></path></g><g transform="translate(311 402)"><path d="M0 -4L1.7 -3.6L3.1 -2.5L3.9 -0.9L3.9 0.9L3.1 2.5L1.7 3.6L0 4L-1.7 3.6L-3.1 2.5L-3.9 0.9L-3.9 -0.9L-3.1 -2.5L-1.7 -3.6Z" fill="#297EA6"></path></g><g transform="translate(540 204)"><path d="M0 -1L0.4 -0.9L0.8 -0.6L1 -0.2L1 0.2L0.8 0.6L0.4 0.9L0 1L-0.4 0.9L-0.8 0.6L-1 0.2L-1 -0.2L-0.8 -0.6L-0.4 -0.9Z" fill="#297EA6"></path></g><g transform="translate(180 140)"><path d="M0 -8L3.5 -7.2L6.3 -5L7.8 -1.8L7.8 1.8L6.3 5L3.5 7.2L0 8L-3.5 7.2L-6.3 5L-7.8 1.8L-7.8 -1.8L-6.3 -5L-3.5 -7.2Z" fill="#297EA6"></path></g><g transform="translate(465 297)"><path d="M0 -8L3.5 -7.2L6.3 -5L7.8 -1.8L7.8 1.8L6.3 5L3.5 7.2L0 8L-3.5 7.2L-6.3 5L-7.8 1.8L-7.8 -1.8L-6.3 -5L-3.5 -7.2Z" fill="#297EA6"></path></g><g transform="translate(738 177)"><path d="M0 -1L0.4 -0.9L0.8 -0.6L1 -0.2L1 0.2L0.8 0.6L0.4 0.9L0 1L-0.4 0.9L-0.8 0.6L-1 0.2L-1 -0.2L-0.8 -0.6L-0.4 -0.9Z" fill="#297EA6"></path></g><g transform="translate(680 24)"><path d="M0 -5L2.2 -4.5L3.9 -3.1L4.9 -1.1L4.9 1.1L3.9 3.1L2.2 4.5L0 5L-2.2 4.5L-3.9 3.1L-4.9 1.1L-4.9 -1.1L-3.9 -3.1L-2.2 -4.5Z" fill="#297EA6"></path></g><g transform="translate(429 318)"><path d="M0 -1L0.4 -0.9L0.8 -0.6L1 -0.2L1 0.2L0.8 0.6L0.4 0.9L0 1L-0.4 0.9L-0.8 0.6L-1 0.2L-1 -0.2L-0.8 -0.6L-0.4 -0.9Z" fill="#297EA6"></path></g><g transform="translate(610 509)"><path d="M0 -4L1.7 -3.6L3.1 -2.5L3.9 -0.9L3.9 0.9L3.1 2.5L1.7 3.6L0 4L-1.7 3.6L-3.1 2.5L-3.9 0.9L-3.9 -0.9L-3.1 -2.5L-1.7 -3.6Z" fill="#297EA6"></path></g><g transform="translate(217 483)"><path d="M0 -2L0.9 -1.8L1.6 -1.2L1.9 -0.4L1.9 0.4L1.6 1.2L0.9 1.8L0 2L-0.9 1.8L-1.6 1.2L-1.9 0.4L-1.9 -0.4L-1.6 -1.2L-0.9 -1.8Z" fill="#297EA6"></path></g><g transform="translate(53 373)"><path d="M0 -7L3 -6.3L5.5 -4.4L6.8 -1.6L6.8 1.6L5.5 4.4L3 6.3L0 7L-3 6.3L-5.5 4.4L-6.8 1.6L-6.8 -1.6L-5.5 -4.4L-3 -6.3Z" fill="#297EA6"></path></g><g transform="translate(413 134)"><path d="M0 -1L0.4 -0.9L0.8 -0.6L1 -0.2L1 0.2L0.8 0.6L0.4 0.9L0 1L-0.4 0.9L-0.8 0.6L-1 0.2L-1 -0.2L-0.8 -0.6L-0.4 -0.9Z" fill="#297EA6"></path></g><g transform="translate(576 248)"><path d="M0 -9L3.9 -8.1L7 -5.6L8.8 -2L8.8 2L7 5.6L3.9 8.1L0 9L-3.9 8.1L-7 5.6L-8.8 2L-8.8 -2L-7 -5.6L-3.9 -8.1Z" fill="#297EA6"></path></g><g transform="translate(403 354)"><path d="M0 -10L4.3 -9L7.8 -6.2L9.7 -2.2L9.7 2.2L7.8 6.2L4.3 9L0 10L-4.3 9L-7.8 6.2L-9.7 2.2L-9.7 -2.2L-7.8 -6.2L-4.3 -9Z" fill="#297EA6"></path></g><g transform="translate(802 27)"><path d="M0 -9L3.9 -8.1L7 -5.6L8.8 -2L8.8 2L7 5.6L3.9 8.1L0 9L-3.9 8.1L-7 5.6L-8.8 2L-8.8 -2L-7 -5.6L-3.9 -8.1Z" fill="#297EA6"></path></g><g transform="translate(240 525)"><path d="M0 -9L3.9 -8.1L7 -5.6L8.8 -2L8.8 2L7 5.6L3.9 8.1L0 9L-3.9 8.1L-7 5.6L-8.8 2L-8.8 -2L-7 -5.6L-3.9 -8.1Z" fill="#297EA6"></path></g><g transform="translate(433 480)"><path d="M0 -9L3.9 -8.1L7 -5.6L8.8 -2L8.8 2L7 5.6L3.9 8.1L0 9L-3.9 8.1L-7 5.6L-8.8 2L-8.8 -2L-7 -5.6L-3.9 -8.1Z" fill="#297EA6"></path></g><g transform="translate(358 347)"><path d="M0 -6L2.6 -5.4L4.7 -3.7L5.8 -1.3L5.8 1.3L4.7 3.7L2.6 5.4L0 6L-2.6 5.4L-4.7 3.7L-5.8 1.3L-5.8 -1.3L-4.7 -3.7L-2.6 -5.4Z" fill="#297EA6"></path></g><g transform="translate(734 446)"><path d="M0 -3L1.3 -2.7L2.3 -1.9L2.9 -0.7L2.9 0.7L2.3 1.9L1.3 2.7L0 3L-1.3 2.7L-2.3 1.9L-2.9 0.7L-2.9 -0.7L-2.3 -1.9L-1.3 -2.7Z" fill="#297EA6"></path></g><g transform="translate(296 260)"><path d="M0 -11L4.8 -9.9L8.6 -6.9L10.7 -2.4L10.7 2.4L8.6 6.9L4.8 9.9L0 11L-4.8 9.9L-8.6 6.9L-10.7 2.4L-10.7 -2.4L-8.6 -6.9L-4.8 -9.9Z" fill="#297EA6"></path></g><g transform="translate(352 511)"><path d="M0 -9L3.9 -8.1L7 -5.6L8.8 -2L8.8 2L7 5.6L3.9 8.1L0 9L-3.9 8.1L-7 5.6L-8.8 2L-8.8 -2L-7 -5.6L-3.9 -8.1Z" fill="#297EA6"></path></g><g transform="translate(551 428)"><path d="M0 -5L2.2 -4.5L3.9 -3.1L4.9 -1.1L4.9 1.1L3.9 3.1L2.2 4.5L0 5L-2.2 4.5L-3.9 3.1L-4.9 1.1L-4.9 -1.1L-3.9 -3.1L-2.2 -4.5Z" fill="#297EA6"></path></g><g transform="translate(556 34)"><path d="M0 -3L1.3 -2.7L2.3 -1.9L2.9 -0.7L2.9 0.7L2.3 1.9L1.3 2.7L0 3L-1.3 2.7L-2.3 1.9L-2.9 0.7L-2.9 -0.7L-2.3 -1.9L-1.3 -2.7Z" fill="#297EA6"></path></g><g transform="translate(261 330)"><path d="M0 -11L4.8 -9.9L8.6 -6.9L10.7 -2.4L10.7 2.4L8.6 6.9L4.8 9.9L0 11L-4.8 9.9L-8.6 6.9L-10.7 2.4L-10.7 -2.4L-8.6 -6.9L-4.8 -9.9Z" fill="#297EA6"></path></g><g transform="translate(63 130)"><path d="M0 -9L3.9 -8.1L7 -5.6L8.8 -2L8.8 2L7 5.6L3.9 8.1L0 9L-3.9 8.1L-7 5.6L-8.8 2L-8.8 -2L-7 -5.6L-3.9 -8.1Z" fill="#297EA6"></path></g><g transform="translate(200 202)"><path d="M0 -2L0.9 -1.8L1.6 -1.2L1.9 -0.4L1.9 0.4L1.6 1.2L0.9 1.8L0 2L-0.9 1.8L-1.6 1.2L-1.9 0.4L-1.9 -0.4L-1.6 -1.2L-0.9 -1.8Z" fill="#297EA6"></path></g><g transform="translate(834 451)"><path d="M0 -11L4.8 -9.9L8.6 -6.9L10.7 -2.4L10.7 2.4L8.6 6.9L4.8 9.9L0 11L-4.8 9.9L-8.6 6.9L-10.7 2.4L-10.7 -2.4L-8.6 -6.9L-4.8 -9.9Z" fill="#297EA6"></path></g><g transform="translate(486 514)"><path d="M0 -2L0.9 -1.8L1.6 -1.2L1.9 -0.4L1.9 0.4L1.6 1.2L0.9 1.8L0 2L-0.9 1.8L-1.6 1.2L-1.9 0.4L-1.9 -0.4L-1.6 -1.2L-0.9 -1.8Z" fill="#297EA6"></path></g><g transform="translate(416 262)"><path d="M0 -5L2.2 -4.5L3.9 -3.1L4.9 -1.1L4.9 1.1L3.9 3.1L2.2 4.5L0 5L-2.2 4.5L-3.9 3.1L-4.9 1.1L-4.9 -1.1L-3.9 -3.1L-2.2 -4.5Z" fill="#297EA6"></path></g><g transform="translate(217 268)"><path d="M0 -2L0.9 -1.8L1.6 -1.2L1.9 -0.4L1.9 0.4L1.6 1.2L0.9 1.8L0 2L-0.9 1.8L-1.6 1.2L-1.9 0.4L-1.9 -0.4L-1.6 -1.2L-0.9 -1.8Z" fill="#297EA6"></path></g><g transform="translate(703 466)"><path d="M0 -3L1.3 -2.7L2.3 -1.9L2.9 -0.7L2.9 0.7L2.3 1.9L1.3 2.7L0 3L-1.3 2.7L-2.3 1.9L-2.9 0.7L-2.9 -0.7L-2.3 -1.9L-1.3 -2.7Z" fill="#297EA6"></path></g><g transform="translate(537 90)"><path d="M0 -9L3.9 -8.1L7 -5.6L8.8 -2L8.8 2L7 5.6L3.9 8.1L0 9L-3.9 8.1L-7 5.6L-8.8 2L-8.8 -2L-7 -5.6L-3.9 -8.1Z" fill="#297EA6"></path></g><g transform="translate(857 403)"><path d="M0 -10L4.3 -9L7.8 -6.2L9.7 -2.2L9.7 2.2L7.8 6.2L4.3 9L0 10L-4.3 9L-7.8 6.2L-9.7 2.2L-9.7 -2.2L-7.8 -6.2L-4.3 -9Z" fill="#297EA6"></path></g><g transform="translate(19 397)"><path d="M0 -5L2.2 -4.5L3.9 -3.1L4.9 -1.1L4.9 1.1L3.9 3.1L2.2 4.5L0 5L-2.2 4.5L-3.9 3.1L-4.9 1.1L-4.9 -1.1L-3.9 -3.1L-2.2 -4.5Z" fill="#297EA6"></path></g><g transform="translate(352 122)"><path d="M0 -3L1.3 -2.7L2.3 -1.9L2.9 -0.7L2.9 0.7L2.3 1.9L1.3 2.7L0 3L-1.3 2.7L-2.3 1.9L-2.9 0.7L-2.9 -0.7L-2.3 -1.9L-1.3 -2.7Z" fill="#297EA6"></path></g><g transform="translate(464 124)"><path d="M0 -6L2.6 -5.4L4.7 -3.7L5.8 -1.3L5.8 1.3L4.7 3.7L2.6 5.4L0 6L-2.6 5.4L-4.7 3.7L-5.8 1.3L-5.8 -1.3L-4.7 -3.7L-2.6 -5.4Z" fill="#297EA6"></path></g><g transform="translate(225 233)"><path d="M0 -2L0.9 -1.8L1.6 -1.2L1.9 -0.4L1.9 0.4L1.6 1.2L0.9 1.8L0 2L-0.9 1.8L-1.6 1.2L-1.9 0.4L-1.9 -0.4L-1.6 -1.2L-0.9 -1.8Z" fill="#297EA6"></path></g><g transform="translate(477 270)"><path d="M0 -8L3.5 -7.2L6.3 -5L7.8 -1.8L7.8 1.8L6.3 5L3.5 7.2L0 8L-3.5 7.2L-6.3 5L-7.8 1.8L-7.8 -1.8L-6.3 -5L-3.5 -7.2Z" fill="#297EA6"></path></g><g transform="translate(635 192)"><path d="M0 -8L3.5 -7.2L6.3 -5L7.8 -1.8L7.8 1.8L6.3 5L3.5 7.2L0 8L-3.5 7.2L-6.3 5L-7.8 1.8L-7.8 -1.8L-6.3 -5L-3.5 -7.2Z" fill="#297EA6"></path></g><g transform="translate(284 22)"><path d="M0 -3L1.3 -2.7L2.3 -1.9L2.9 -0.7L2.9 0.7L2.3 1.9L1.3 2.7L0 3L-1.3 2.7L-2.3 1.9L-2.9 0.7L-2.9 -0.7L-2.3 -1.9L-1.3 -2.7Z" fill="#297EA6"></path></g><g transform="translate(554 339)"><path d="M0 -7L3 -6.3L5.5 -4.4L6.8 -1.6L6.8 1.6L5.5 4.4L3 6.3L0 7L-3 6.3L-5.5 4.4L-6.8 1.6L-6.8 -1.6L-5.5 -4.4L-3 -6.3Z" fill="#297EA6"></path></g><g transform="translate(505 108)"><path d="M0 -9L3.9 -8.1L7 -5.6L8.8 -2L8.8 2L7 5.6L3.9 8.1L0 9L-3.9 8.1L-7 5.6L-8.8 2L-8.8 -2L-7 -5.6L-3.9 -8.1Z" fill="#297EA6"></path></g><g transform="translate(610 98)"><path d="M0 -9L3.9 -8.1L7 -5.6L8.8 -2L8.8 2L7 5.6L3.9 8.1L0 9L-3.9 8.1L-7 5.6L-8.8 2L-8.8 -2L-7 -5.6L-3.9 -8.1Z" fill="#297EA6"></path></g><g transform="translate(511 136)"><path d="M0 -5L2.2 -4.5L3.9 -3.1L4.9 -1.1L4.9 1.1L3.9 3.1L2.2 4.5L0 5L-2.2 4.5L-3.9 3.1L-4.9 1.1L-4.9 -1.1L-3.9 -3.1L-2.2 -4.5Z" fill="#297EA6"></path></g><g transform="translate(807 449)"><path d="M0 -1L0.4 -0.9L0.8 -0.6L1 -0.2L1 0.2L0.8 0.6L0.4 0.9L0 1L-0.4 0.9L-0.8 0.6L-1 0.2L-1 -0.2L-0.8 -0.6L-0.4 -0.9Z" fill="#297EA6"></path></g><g transform="translate(942 493)"><path d="M0 -5L2.2 -4.5L3.9 -3.1L4.9 -1.1L4.9 1.1L3.9 3.1L2.2 4.5L0 5L-2.2 4.5L-3.9 3.1L-4.9 1.1L-4.9 -1.1L-3.9 -3.1L-2.2 -4.5Z" fill="#297EA6"></path></g><g transform="translate(287 67)"><path d="M0 -4L1.7 -3.6L3.1 -2.5L3.9 -0.9L3.9 0.9L3.1 2.5L1.7 3.6L0 4L-1.7 3.6L-3.1 2.5L-3.9 0.9L-3.9 -0.9L-3.1 -2.5L-1.7 -3.6Z" fill="#297EA6"></path></g><g transform="translate(699 516)"><path d="M0 -7L3 -6.3L5.5 -4.4L6.8 -1.6L6.8 1.6L5.5 4.4L3 6.3L0 7L-3 6.3L-5.5 4.4L-6.8 1.6L-6.8 -1.6L-5.5 -4.4L-3 -6.3Z" fill="#297EA6"></path></g><g transform="translate(945 152)"><path d="M0 -5L2.2 -4.5L3.9 -3.1L4.9 -1.1L4.9 1.1L3.9 3.1L2.2 4.5L0 5L-2.2 4.5L-3.9 3.1L-4.9 1.1L-4.9 -1.1L-3.9 -3.1L-2.2 -4.5Z" fill="#297EA6"></path></g><g transform="translate(833 523)"><path d="M0 -6L2.6 -5.4L4.7 -3.7L5.8 -1.3L5.8 1.3L4.7 3.7L2.6 5.4L0 6L-2.6 5.4L-4.7 3.7L-5.8 1.3L-5.8 -1.3L-4.7 -3.7L-2.6 -5.4Z" fill="#297EA6"></path></g><g transform="translate(403 60)"><path d="M0 -2L0.9 -1.8L1.6 -1.2L1.9 -0.4L1.9 0.4L1.6 1.2L0.9 1.8L0 2L-0.9 1.8L-1.6 1.2L-1.9 0.4L-1.9 -0.4L-1.6 -1.2L-0.9 -1.8Z" fill="#297EA6"></path></g><g transform="translate(937 363)"><path d="M0 -1L0.4 -0.9L0.8 -0.6L1 -0.2L1 0.2L0.8 0.6L0.4 0.9L0 1L-0.4 0.9L-0.8 0.6L-1 0.2L-1 -0.2L-0.8 -0.6L-0.4 -0.9Z" fill="#297EA6"></path></g><g transform="translate(792 319)"><path d="M0 -4L1.7 -3.6L3.1 -2.5L3.9 -0.9L3.9 0.9L3.1 2.5L1.7 3.6L0 4L-1.7 3.6L-3.1 2.5L-3.9 0.9L-3.9 -0.9L-3.1 -2.5L-1.7 -3.6Z" fill="#297EA6"></path></g><g transform="translate(766 344)"><path d="M0 -9L3.9 -8.1L7 -5.6L8.8 -2L8.8 2L7 5.6L3.9 8.1L0 9L-3.9 8.1L-7 5.6L-8.8 2L-8.8 -2L-7 -5.6L-3.9 -8.1Z" fill="#297EA6"></path></g><g transform="translate(388 243)"><path d="M0 -2L0.9 -1.8L1.6 -1.2L1.9 -0.4L1.9 0.4L1.6 1.2L0.9 1.8L0 2L-0.9 1.8L-1.6 1.2L-1.9 0.4L-1.9 -0.4L-1.6 -1.2L-0.9 -1.8Z" fill="#297EA6"></path></g><g transform="translate(126 350)"><path d="M0 -10L4.3 -9L7.8 -6.2L9.7 -2.2L9.7 2.2L7.8 6.2L4.3 9L0 10L-4.3 9L-7.8 6.2L-9.7 2.2L-9.7 -2.2L-7.8 -6.2L-4.3 -9Z" fill="#297EA6"></path></g><g transform="translate(174 525)"><path d="M0 -8L3.5 -7.2L6.3 -5L7.8 -1.8L7.8 1.8L6.3 5L3.5 7.2L0 8L-3.5 7.2L-6.3 5L-7.8 1.8L-7.8 -1.8L-6.3 -5L-3.5 -7.2Z" fill="#297EA6"></path></g><g transform="translate(716 201)"><path d="M0 -9L3.9 -8.1L7 -5.6L8.8 -2L8.8 2L7 5.6L3.9 8.1L0 9L-3.9 8.1L-7 5.6L-8.8 2L-8.8 -2L-7 -5.6L-3.9 -8.1Z" fill="#297EA6"></path></g><g transform="translate(575 290)"><path d="M0 -7L3 -6.3L5.5 -4.4L6.8 -1.6L6.8 1.6L5.5 4.4L3 6.3L0 7L-3 6.3L-5.5 4.4L-6.8 1.6L-6.8 -1.6L-5.5 -4.4L-3 -6.3Z" fill="#297EA6"></path></g><g transform="translate(809 107)"><path d="M0 -5L2.2 -4.5L3.9 -3.1L4.9 -1.1L4.9 1.1L3.9 3.1L2.2 4.5L0 5L-2.2 4.5L-3.9 3.1L-4.9 1.1L-4.9 -1.1L-3.9 -3.1L-2.2 -4.5Z" fill="#297EA6"></path></g><g transform="translate(744 13)"><path d="M0 -9L3.9 -8.1L7 -5.6L8.8 -2L8.8 2L7 5.6L3.9 8.1L0 9L-3.9 8.1L-7 5.6L-8.8 2L-8.8 -2L-7 -5.6L-3.9 -8.1Z" fill="#297EA6"></path></g><g transform="translate(80 422)"><path d="M0 -4L1.7 -3.6L3.1 -2.5L3.9 -0.9L3.9 0.9L3.1 2.5L1.7 3.6L0 4L-1.7 3.6L-3.1 2.5L-3.9 0.9L-3.9 -0.9L-3.1 -2.5L-1.7 -3.6Z" fill="#297EA6"></path></g><g transform="translate(903 351)"><path d="M0 -4L1.7 -3.6L3.1 -2.5L3.9 -0.9L3.9 0.9L3.1 2.5L1.7 3.6L0 4L-1.7 3.6L-3.1 2.5L-3.9 0.9L-3.9 -0.9L-3.1 -2.5L-1.7 -3.6Z" fill="#297EA6"></path></g><g transform="translate(211 79)"><path d="M0 -3L1.3 -2.7L2.3 -1.9L2.9 -0.7L2.9 0.7L2.3 1.9L1.3 2.7L0 3L-1.3 2.7L-2.3 1.9L-2.9 0.7L-2.9 -0.7L-2.3 -1.9L-1.3 -2.7Z" fill="#297EA6"></path></g><g transform="translate(754 78)"><path d="M0 -2L0.9 -1.8L1.6 -1.2L1.9 -0.4L1.9 0.4L1.6 1.2L0.9 1.8L0 2L-0.9 1.8L-1.6 1.2L-1.9 0.4L-1.9 -0.4L-1.6 -1.2L-0.9 -1.8Z" fill="#297EA6"></path></g><g transform="translate(432 175)"><path d="M0 -10L4.3 -9L7.8 -6.2L9.7 -2.2L9.7 2.2L7.8 6.2L4.3 9L0 10L-4.3 9L-7.8 6.2L-9.7 2.2L-9.7 -2.2L-7.8 -6.2L-4.3 -9Z" fill="#297EA6"></path></g><g transform="translate(121 99)"><path d="M0 -5L2.2 -4.5L3.9 -3.1L4.9 -1.1L4.9 1.1L3.9 3.1L2.2 4.5L0 5L-2.2 4.5L-3.9 3.1L-4.9 1.1L-4.9 -1.1L-3.9 -3.1L-2.2 -4.5Z" fill="#297EA6"></path></g><g transform="translate(471 30)"><path d="M0 -10L4.3 -9L7.8 -6.2L9.7 -2.2L9.7 2.2L7.8 6.2L4.3 9L0 10L-4.3 9L-7.8 6.2L-9.7 2.2L-9.7 -2.2L-7.8 -6.2L-4.3 -9Z" fill="#297EA6"></path></g><g transform="translate(250 255)"><path d="M0 -4L1.7 -3.6L3.1 -2.5L3.9 -0.9L3.9 0.9L3.1 2.5L1.7 3.6L0 4L-1.7 3.6L-3.1 2.5L-3.9 0.9L-3.9 -0.9L-3.1 -2.5L-1.7 -3.6Z" fill="#297EA6"></path></g><g transform="translate(397 315)"><path d="M0 -3L1.3 -2.7L2.3 -1.9L2.9 -0.7L2.9 0.7L2.3 1.9L1.3 2.7L0 3L-1.3 2.7L-2.3 1.9L-2.9 0.7L-2.9 -0.7L-2.3 -1.9L-1.3 -2.7Z" fill="#297EA6"></path></g><g transform="translate(421 381)"><path d="M0 -10L4.3 -9L7.8 -6.2L9.7 -2.2L9.7 2.2L7.8 6.2L4.3 9L0 10L-4.3 9L-7.8 6.2L-9.7 2.2L-9.7 -2.2L-7.8 -6.2L-4.3 -9Z" fill="#297EA6"></path></g><g transform="translate(22 24)"><path d="M0 -9L3.9 -8.1L7 -5.6L8.8 -2L8.8 2L7 5.6L3.9 8.1L0 9L-3.9 8.1L-7 5.6L-8.8 2L-8.8 -2L-7 -5.6L-3.9 -8.1Z" fill="#297EA6"></path></g><g transform="translate(273 291)"><path d="M0 -6L2.6 -5.4L4.7 -3.7L5.8 -1.3L5.8 1.3L4.7 3.7L2.6 5.4L0 6L-2.6 5.4L-4.7 3.7L-5.8 1.3L-5.8 -1.3L-4.7 -3.7L-2.6 -5.4Z" fill="#297EA6"></path></g><g transform="translate(246 436)"><path d="M0 -10L4.3 -9L7.8 -6.2L9.7 -2.2L9.7 2.2L7.8 6.2L4.3 9L0 10L-4.3 9L-7.8 6.2L-9.7 2.2L-9.7 -2.2L-7.8 -6.2L-4.3 -9Z" fill="#297EA6"></path></g><g transform="translate(944 211)"><path d="M0 -5L2.2 -4.5L3.9 -3.1L4.9 -1.1L4.9 1.1L3.9 3.1L2.2 4.5L0 5L-2.2 4.5L-3.9 3.1L-4.9 1.1L-4.9 -1.1L-3.9 -3.1L-2.2 -4.5Z" fill="#297EA6"></path></g><g transform="translate(81 207)"><path d="M0 -2L0.9 -1.8L1.6 -1.2L1.9 -0.4L1.9 0.4L1.6 1.2L0.9 1.8L0 2L-0.9 1.8L-1.6 1.2L-1.9 0.4L-1.9 -0.4L-1.6 -1.2L-0.9 -1.8Z" fill="#297EA6"></path></g><g transform="translate(491 332)"><path d="M0 -4L1.7 -3.6L3.1 -2.5L3.9 -0.9L3.9 0.9L3.1 2.5L1.7 3.6L0 4L-1.7 3.6L-3.1 2.5L-3.9 0.9L-3.9 -0.9L-3.1 -2.5L-1.7 -3.6Z" fill="#297EA6"></path></g><g transform="translate(206 123)"><path d="M0 -9L3.9 -8.1L7 -5.6L8.8 -2L8.8 2L7 5.6L3.9 8.1L0 9L-3.9 8.1L-7 5.6L-8.8 2L-8.8 -2L-7 -5.6L-3.9 -8.1Z" fill="#297EA6"></path></g><g transform="translate(94 158)"><path d="M0 -11L4.8 -9.9L8.6 -6.9L10.7 -2.4L10.7 2.4L8.6 6.9L4.8 9.9L0 11L-4.8 9.9L-8.6 6.9L-10.7 2.4L-10.7 -2.4L-8.6 -6.9L-4.8 -9.9Z" fill="#297EA6"></path></g><g transform="translate(791 376)"><path d="M0 -10L4.3 -9L7.8 -6.2L9.7 -2.2L9.7 2.2L7.8 6.2L4.3 9L0 10L-4.3 9L-7.8 6.2L-9.7 2.2L-9.7 -2.2L-7.8 -6.2L-4.3 -9Z" fill="#297EA6"></path></g><g transform="translate(732 521)"><path d="M0 -11L4.8 -9.9L8.6 -6.9L10.7 -2.4L10.7 2.4L8.6 6.9L4.8 9.9L0 11L-4.8 9.9L-8.6 6.9L-10.7 2.4L-10.7 -2.4L-8.6 -6.9L-4.8 -9.9Z" fill="#297EA6"></path></g><g transform="translate(813 186)"><path d="M0 -3L1.3 -2.7L2.3 -1.9L2.9 -0.7L2.9 0.7L2.3 1.9L1.3 2.7L0 3L-1.3 2.7L-2.3 1.9L-2.9 0.7L-2.9 -0.7L-2.3 -1.9L-1.3 -2.7Z" fill="#297EA6"></path></g><g transform="translate(814 506)"><path d="M0 -1L0.4 -0.9L0.8 -0.6L1 -0.2L1 0.2L0.8 0.6L0.4 0.9L0 1L-0.4 0.9L-0.8 0.6L-1 0.2L-1 -0.2L-0.8 -0.6L-0.4 -0.9Z" fill="#297EA6"></path></g><g transform="translate(700 375)"><path d="M0 -5L2.2 -4.5L3.9 -3.1L4.9 -1.1L4.9 1.1L3.9 3.1L2.2 4.5L0 5L-2.2 4.5L-3.9 3.1L-4.9 1.1L-4.9 -1.1L-3.9 -3.1L-2.2 -4.5Z" fill="#297EA6"></path></g><g transform="translate(157 86)"><path d="M0 -6L2.6 -5.4L4.7 -3.7L5.8 -1.3L5.8 1.3L4.7 3.7L2.6 5.4L0 6L-2.6 5.4L-4.7 3.7L-5.8 1.3L-5.8 -1.3L-4.7 -3.7L-2.6 -5.4Z" fill="#297EA6"></path></g><g transform="translate(260 108)"><path d="M0 -10L4.3 -9L7.8 -6.2L9.7 -2.2L9.7 2.2L7.8 6.2L4.3 9L0 10L-4.3 9L-7.8 6.2L-9.7 2.2L-9.7 -2.2L-7.8 -6.2L-4.3 -9Z" fill="#297EA6"></path></g><g transform="translate(539 56)"><path d="M0 -5L2.2 -4.5L3.9 -3.1L4.9 -1.1L4.9 1.1L3.9 3.1L2.2 4.5L0 5L-2.2 4.5L-3.9 3.1L-4.9 1.1L-4.9 -1.1L-3.9 -3.1L-2.2 -4.5Z" fill="#297EA6"></path></g><g transform="translate(506 217)"><path d="M0 -1L0.4 -0.9L0.8 -0.6L1 -0.2L1 0.2L0.8 0.6L0.4 0.9L0 1L-0.4 0.9L-0.8 0.6L-1 0.2L-1 -0.2L-0.8 -0.6L-0.4 -0.9Z" fill="#297EA6"></path></g><g transform="translate(650 519)"><path d="M0 -11L4.8 -9.9L8.6 -6.9L10.7 -2.4L10.7 2.4L8.6 6.9L4.8 9.9L0 11L-4.8 9.9L-8.6 6.9L-10.7 2.4L-10.7 -2.4L-8.6 -6.9L-4.8 -9.9Z" fill="#297EA6"></path></g><g transform="translate(810 355)"><path d="M0 -6L2.6 -5.4L4.7 -3.7L5.8 -1.3L5.8 1.3L4.7 3.7L2.6 5.4L0 6L-2.6 5.4L-4.7 3.7L-5.8 1.3L-5.8 -1.3L-4.7 -3.7L-2.6 -5.4Z" fill="#297EA6"></path></g><g transform="translate(467 150)"><path d="M0 -10L4.3 -9L7.8 -6.2L9.7 -2.2L9.7 2.2L7.8 6.2L4.3 9L0 10L-4.3 9L-7.8 6.2L-9.7 2.2L-9.7 -2.2L-7.8 -6.2L-4.3 -9Z" fill="#297EA6"></path></g><g transform="translate(105 303)"><path d="M0 -3L1.3 -2.7L2.3 -1.9L2.9 -0.7L2.9 0.7L2.3 1.9L1.3 2.7L0 3L-1.3 2.7L-2.3 1.9L-2.9 0.7L-2.9 -0.7L-2.3 -1.9L-1.3 -2.7Z" fill="#297EA6"></path></g><g transform="translate(23 105)"><path d="M0 -9L3.9 -8.1L7 -5.6L8.8 -2L8.8 2L7 5.6L3.9 8.1L0 9L-3.9 8.1L-7 5.6L-8.8 2L-8.8 -2L-7 -5.6L-3.9 -8.1Z" fill="#297EA6"></path></g><g transform="translate(295 494)"><path d="M0 -7L3 -6.3L5.5 -4.4L6.8 -1.6L6.8 1.6L5.5 4.4L3 6.3L0 7L-3 6.3L-5.5 4.4L-6.8 1.6L-6.8 -1.6L-5.5 -4.4L-3 -6.3Z" fill="#297EA6"></path></g><g transform="translate(451 411)"><path d="M0 -2L0.9 -1.8L1.6 -1.2L1.9 -0.4L1.9 0.4L1.6 1.2L0.9 1.8L0 2L-0.9 1.8L-1.6 1.2L-1.9 0.4L-1.9 -0.4L-1.6 -1.2L-0.9 -1.8Z" fill="#297EA6"></path></g><g transform="translate(194 421)"><path d="M0 -4L1.7 -3.6L3.1 -2.5L3.9 -0.9L3.9 0.9L3.1 2.5L1.7 3.6L0 4L-1.7 3.6L-3.1 2.5L-3.9 0.9L-3.9 -0.9L-3.1 -2.5L-1.7 -3.6Z" fill="#297EA6"></path></g><g transform="translate(897 283)"><path d="M0 -11L4.8 -9.9L8.6 -6.9L10.7 -2.4L10.7 2.4L8.6 6.9L4.8 9.9L0 11L-4.8 9.9L-8.6 6.9L-10.7 2.4L-10.7 -2.4L-8.6 -6.9L-4.8 -9.9Z" fill="#297EA6"></path></g><g transform="translate(188 346)"><path d="M0 -6L2.6 -5.4L4.7 -3.7L5.8 -1.3L5.8 1.3L4.7 3.7L2.6 5.4L0 6L-2.6 5.4L-4.7 3.7L-5.8 1.3L-5.8 -1.3L-4.7 -3.7L-2.6 -5.4Z" fill="#297EA6"></path></g><g transform="translate(512 81)"><path d="M0 -1L0.4 -0.9L0.8 -0.6L1 -0.2L1 0.2L0.8 0.6L0.4 0.9L0 1L-0.4 0.9L-0.8 0.6L-1 0.2L-1 -0.2L-0.8 -0.6L-0.4 -0.9Z" fill="#297EA6"></path></g><g transform="translate(41 72)"><path d="M0 -2L0.9 -1.8L1.6 -1.2L1.9 -0.4L1.9 0.4L1.6 1.2L0.9 1.8L0 2L-0.9 1.8L-1.6 1.2L-1.9 0.4L-1.9 -0.4L-1.6 -1.2L-0.9 -1.8Z" fill="#297EA6"></path></g><g transform="translate(880 391)"><path d="M0 -2L0.9 -1.8L1.6 -1.2L1.9 -0.4L1.9 0.4L1.6 1.2L0.9 1.8L0 2L-0.9 1.8L-1.6 1.2L-1.9 0.4L-1.9 -0.4L-1.6 -1.2L-0.9 -1.8Z" fill="#297EA6"></path></g><g transform="translate(209 399)"><path d="M0 -7L3 -6.3L5.5 -4.4L6.8 -1.6L6.8 1.6L5.5 4.4L3 6.3L0 7L-3 6.3L-5.5 4.4L-6.8 1.6L-6.8 -1.6L-5.5 -4.4L-3 -6.3Z" fill="#297EA6"></path></g><g transform="translate(579 513)"><path d="M0 -6L2.6 -5.4L4.7 -3.7L5.8 -1.3L5.8 1.3L4.7 3.7L2.6 5.4L0 6L-2.6 5.4L-4.7 3.7L-5.8 1.3L-5.8 -1.3L-4.7 -3.7L-2.6 -5.4Z" fill="#297EA6"></path></g><g transform="translate(916 180)"><path d="M0 -3L1.3 -2.7L2.3 -1.9L2.9 -0.7L2.9 0.7L2.3 1.9L1.3 2.7L0 3L-1.3 2.7L-2.3 1.9L-2.9 0.7L-2.9 -0.7L-2.3 -1.9L-1.3 -2.7Z" fill="#297EA6"></path></g><g transform="translate(508 168)"><path d="M0 -1L0.4 -0.9L0.8 -0.6L1 -0.2L1 0.2L0.8 0.6L0.4 0.9L0 1L-0.4 0.9L-0.8 0.6L-1 0.2L-1 -0.2L-0.8 -0.6L-0.4 -0.9Z" fill="#297EA6"></path></g><g transform="translate(394 411)"><path d="M0 -11L4.8 -9.9L8.6 -6.9L10.7 -2.4L10.7 2.4L8.6 6.9L4.8 9.9L0 11L-4.8 9.9L-8.6 6.9L-10.7 2.4L-10.7 -2.4L-8.6 -6.9L-4.8 -9.9Z" fill="#297EA6"></path></g><g transform="translate(57 507)"><path d="M0 -2L0.9 -1.8L1.6 -1.2L1.9 -0.4L1.9 0.4L1.6 1.2L0.9 1.8L0 2L-0.9 1.8L-1.6 1.2L-1.9 0.4L-1.9 -0.4L-1.6 -1.2L-0.9 -1.8Z" fill="#297EA6"></path></g><g transform="translate(861 267)"><path d="M0 -11L4.8 -9.9L8.6 -6.9L10.7 -2.4L10.7 2.4L8.6 6.9L4.8 9.9L0 11L-4.8 9.9L-8.6 6.9L-10.7 2.4L-10.7 -2.4L-8.6 -6.9L-4.8 -9.9Z" fill="#297EA6"></path></g><g transform="translate(722 359)"><path d="M0 -11L4.8 -9.9L8.6 -6.9L10.7 -2.4L10.7 2.4L8.6 6.9L4.8 9.9L0 11L-4.8 9.9L-8.6 6.9L-10.7 2.4L-10.7 -2.4L-8.6 -6.9L-4.8 -9.9Z" fill="#297EA6"></path></g><g transform="translate(27 342)"><path d="M0 -8L3.5 -7.2L6.3 -5L7.8 -1.8L7.8 1.8L6.3 5L3.5 7.2L0 8L-3.5 7.2L-6.3 5L-7.8 1.8L-7.8 -1.8L-6.3 -5L-3.5 -7.2Z" fill="#297EA6"></path></g><g transform="translate(901 120)"><path d="M0 -5L2.2 -4.5L3.9 -3.1L4.9 -1.1L4.9 1.1L3.9 3.1L2.2 4.5L0 5L-2.2 4.5L-3.9 3.1L-4.9 1.1L-4.9 -1.1L-3.9 -3.1L-2.2 -4.5Z" fill="#297EA6"></path></g><g transform="translate(350 251)"><path d="M0 -4L1.7 -3.6L3.1 -2.5L3.9 -0.9L3.9 0.9L3.1 2.5L1.7 3.6L0 4L-1.7 3.6L-3.1 2.5L-3.9 0.9L-3.9 -0.9L-3.1 -2.5L-1.7 -3.6Z" fill="#297EA6"></path></g><g transform="translate(547 475)"><path d="M0 -6L2.6 -5.4L4.7 -3.7L5.8 -1.3L5.8 1.3L4.7 3.7L2.6 5.4L0 6L-2.6 5.4L-4.7 3.7L-5.8 1.3L-5.8 -1.3L-4.7 -3.7L-2.6 -5.4Z" fill="#297EA6"></path></g><g transform="translate(121 525)"><path d="M0 -8L3.5 -7.2L6.3 -5L7.8 -1.8L7.8 1.8L6.3 5L3.5 7.2L0 8L-3.5 7.2L-6.3 5L-7.8 1.8L-7.8 -1.8L-6.3 -5L-3.5 -7.2Z" fill="#297EA6"></path></g><g transform="translate(20 225)"><path d="M0 -3L1.3 -2.7L2.3 -1.9L2.9 -0.7L2.9 0.7L2.3 1.9L1.3 2.7L0 3L-1.3 2.7L-2.3 1.9L-2.9 0.7L-2.9 -0.7L-2.3 -1.9L-1.3 -2.7Z" fill="#297EA6"></path></g><g transform="translate(747 43)"><path d="M0 -7L3 -6.3L5.5 -4.4L6.8 -1.6L6.8 1.6L5.5 4.4L3 6.3L0 7L-3 6.3L-5.5 4.4L-6.8 1.6L-6.8 -1.6L-5.5 -4.4L-3 -6.3Z" fill="#297EA6"></path></g><g transform="translate(680 316)"><path d="M0 -3L1.3 -2.7L2.3 -1.9L2.9 -0.7L2.9 0.7L2.3 1.9L1.3 2.7L0 3L-1.3 2.7L-2.3 1.9L-2.9 0.7L-2.9 -0.7L-2.3 -1.9L-1.3 -2.7Z" fill="#297EA6"></path></g><g transform="translate(393 184)"><path d="M0 -6L2.6 -5.4L4.7 -3.7L5.8 -1.3L5.8 1.3L4.7 3.7L2.6 5.4L0 6L-2.6 5.4L-4.7 3.7L-5.8 1.3L-5.8 -1.3L-4.7 -3.7L-2.6 -5.4Z" fill="#297EA6"></path></g><g transform="translate(321 166)"><path d="M0 -4L1.7 -3.6L3.1 -2.5L3.9 -0.9L3.9 0.9L3.1 2.5L1.7 3.6L0 4L-1.7 3.6L-3.1 2.5L-3.9 0.9L-3.9 -0.9L-3.1 -2.5L-1.7 -3.6Z" fill="#297EA6"></path></g><g transform="translate(678 448)"><path d="M0 -7L3 -6.3L5.5 -4.4L6.8 -1.6L6.8 1.6L5.5 4.4L3 6.3L0 7L-3 6.3L-5.5 4.4L-6.8 1.6L-6.8 -1.6L-5.5 -4.4L-3 -6.3Z" fill="#297EA6"></path></g><g transform="translate(884 442)"><path d="M0 -5L2.2 -4.5L3.9 -3.1L4.9 -1.1L4.9 1.1L3.9 3.1L2.2 4.5L0 5L-2.2 4.5L-3.9 3.1L-4.9 1.1L-4.9 -1.1L-3.9 -3.1L-2.2 -4.5Z" fill="#297EA6"></path></g><g transform="translate(85 40)"><path d="M0 -1L0.4 -0.9L0.8 -0.6L1 -0.2L1 0.2L0.8 0.6L0.4 0.9L0 1L-0.4 0.9L-0.8 0.6L-1 0.2L-1 -0.2L-0.8 -0.6L-0.4 -0.9Z" fill="#297EA6"></path></g><g transform="translate(222 41)"><path d="M0 -5L2.2 -4.5L3.9 -3.1L4.9 -1.1L4.9 1.1L3.9 3.1L2.2 4.5L0 5L-2.2 4.5L-3.9 3.1L-4.9 1.1L-4.9 -1.1L-3.9 -3.1L-2.2 -4.5Z" fill="#297EA6"></path></g><g transform="translate(720 287)"><path d="M0 -9L3.9 -8.1L7 -5.6L8.8 -2L8.8 2L7 5.6L3.9 8.1L0 9L-3.9 8.1L-7 5.6L-8.8 2L-8.8 -2L-7 -5.6L-3.9 -8.1Z" fill="#297EA6"></path></g><g transform="translate(74 82)"><path d="M0 -8L3.5 -7.2L6.3 -5L7.8 -1.8L7.8 1.8L6.3 5L3.5 7.2L0 8L-3.5 7.2L-6.3 5L-7.8 1.8L-7.8 -1.8L-6.3 -5L-3.5 -7.2Z" fill="#297EA6"></path></g><g transform="translate(217 368)"><path d="M0 -9L3.9 -8.1L7 -5.6L8.8 -2L8.8 2L7 5.6L3.9 8.1L0 9L-3.9 8.1L-7 5.6L-8.8 2L-8.8 -2L-7 -5.6L-3.9 -8.1Z" fill="#297EA6"></path></g><g transform="translate(424 26)"><path d="M0 -10L4.3 -9L7.8 -6.2L9.7 -2.2L9.7 2.2L7.8 6.2L4.3 9L0 10L-4.3 9L-7.8 6.2L-9.7 2.2L-9.7 -2.2L-7.8 -6.2L-4.3 -9Z" fill="#297EA6"></path></g><g transform="translate(593 192)"><path d="M0 -1L0.4 -0.9L0.8 -0.6L1 -0.2L1 0.2L0.8 0.6L0.4 0.9L0 1L-0.4 0.9L-0.8 0.6L-1 0.2L-1 -0.2L-0.8 -0.6L-0.4 -0.9Z" fill="#297EA6"></path></g><g transform="translate(624 363)"><path d="M0 -6L2.6 -5.4L4.7 -3.7L5.8 -1.3L5.8 1.3L4.7 3.7L2.6 5.4L0 6L-2.6 5.4L-4.7 3.7L-5.8 1.3L-5.8 -1.3L-4.7 -3.7L-2.6 -5.4Z" fill="#297EA6"></path></g><g transform="translate(649 428)"><path d="M0 -6L2.6 -5.4L4.7 -3.7L5.8 -1.3L5.8 1.3L4.7 3.7L2.6 5.4L0 6L-2.6 5.4L-4.7 3.7L-5.8 1.3L-5.8 -1.3L-4.7 -3.7L-2.6 -5.4Z" fill="#297EA6"></path></g><g transform="translate(347 96)"><path d="M0 -1L0.4 -0.9L0.8 -0.6L1 -0.2L1 0.2L0.8 0.6L0.4 0.9L0 1L-0.4 0.9L-0.8 0.6L-1 0.2L-1 -0.2L-0.8 -0.6L-0.4 -0.9Z" fill="#297EA6"></path></g><g transform="translate(686 72)"><path d="M0 -3L1.3 -2.7L2.3 -1.9L2.9 -0.7L2.9 0.7L2.3 1.9L1.3 2.7L0 3L-1.3 2.7L-2.3 1.9L-2.9 0.7L-2.9 -0.7L-2.3 -1.9L-1.3 -2.7Z" fill="#297EA6"></path></g><g transform="translate(185 18)"><path d="M0 -9L3.9 -8.1L7 -5.6L8.8 -2L8.8 2L7 5.6L3.9 8.1L0 9L-3.9 8.1L-7 5.6L-8.8 2L-8.8 -2L-7 -5.6L-3.9 -8.1Z" fill="#297EA6"></path></g><g transform="translate(268 168)"><path d="M0 -3L1.3 -2.7L2.3 -1.9L2.9 -0.7L2.9 0.7L2.3 1.9L1.3 2.7L0 3L-1.3 2.7L-2.3 1.9L-2.9 0.7L-2.9 -0.7L-2.3 -1.9L-1.3 -2.7Z" fill="#297EA6"></path></g><g transform="translate(864 463)"><path d="M0 -3L1.3 -2.7L2.3 -1.9L2.9 -0.7L2.9 0.7L2.3 1.9L1.3 2.7L0 3L-1.3 2.7L-2.3 1.9L-2.9 0.7L-2.9 -0.7L-2.3 -1.9L-1.3 -2.7Z" fill="#297EA6"></path></g><g transform="translate(778 499)"><path d="M0 -11L4.8 -9.9L8.6 -6.9L10.7 -2.4L10.7 2.4L8.6 6.9L4.8 9.9L0 11L-4.8 9.9L-8.6 6.9L-10.7 2.4L-10.7 -2.4L-8.6 -6.9L-4.8 -9.9Z" fill="#297EA6"></path></g><g transform="translate(841 123)"><path d="M0 -7L3 -6.3L5.5 -4.4L6.8 -1.6L6.8 1.6L5.5 4.4L3 6.3L0 7L-3 6.3L-5.5 4.4L-6.8 1.6L-6.8 -1.6L-5.5 -4.4L-3 -6.3Z" fill="#297EA6"></path></g><g transform="translate(914 450)"><path d="M0 -9L3.9 -8.1L7 -5.6L8.8 -2L8.8 2L7 5.6L3.9 8.1L0 9L-3.9 8.1L-7 5.6L-8.8 2L-8.8 -2L-7 -5.6L-3.9 -8.1Z" fill="#297EA6"></path></g><g transform="translate(683 283)"><path d="M0 -8L3.5 -7.2L6.3 -5L7.8 -1.8L7.8 1.8L6.3 5L3.5 7.2L0 8L-3.5 7.2L-6.3 5L-7.8 1.8L-7.8 -1.8L-6.3 -5L-3.5 -7.2Z" fill="#297EA6"></path></g><g transform="translate(589 351)"><path d="M0 -8L3.5 -7.2L6.3 -5L7.8 -1.8L7.8 1.8L6.3 5L3.5 7.2L0 8L-3.5 7.2L-6.3 5L-7.8 1.8L-7.8 -1.8L-6.3 -5L-3.5 -7.2Z" fill="#297EA6"></path></g><g transform="translate(850 324)"><path d="M0 -11L4.8 -9.9L8.6 -6.9L10.7 -2.4L10.7 2.4L8.6 6.9L4.8 9.9L0 11L-4.8 9.9L-8.6 6.9L-10.7 2.4L-10.7 -2.4L-8.6 -6.9L-4.8 -9.9Z" fill="#297EA6"></path></g><g transform="translate(25 437)"><path d="M0 -9L3.9 -8.1L7 -5.6L8.8 -2L8.8 2L7 5.6L3.9 8.1L0 9L-3.9 8.1L-7 5.6L-8.8 2L-8.8 -2L-7 -5.6L-3.9 -8.1Z" fill="#297EA6"></path></g><g transform="translate(327 491)"><path d="M0 -3L1.3 -2.7L2.3 -1.9L2.9 -0.7L2.9 0.7L2.3 1.9L1.3 2.7L0 3L-1.3 2.7L-2.3 1.9L-2.9 0.7L-2.9 -0.7L-2.3 -1.9L-1.3 -2.7Z" fill="#297EA6"></path></g><g transform="translate(179 170)"><path d="M0 -6L2.6 -5.4L4.7 -3.7L5.8 -1.3L5.8 1.3L4.7 3.7L2.6 5.4L0 6L-2.6 5.4L-4.7 3.7L-5.8 1.3L-5.8 -1.3L-4.7 -3.7L-2.6 -5.4Z" fill="#297EA6"></path></g><g transform="translate(367 193)"><path d="M0 -9L3.9 -8.1L7 -5.6L8.8 -2L8.8 2L7 5.6L3.9 8.1L0 9L-3.9 8.1L-7 5.6L-8.8 2L-8.8 -2L-7 -5.6L-3.9 -8.1Z" fill="#297EA6"></path></g><g transform="translate(366 478)"><path d="M0 -1L0.4 -0.9L0.8 -0.6L1 -0.2L1 0.2L0.8 0.6L0.4 0.9L0 1L-0.4 0.9L-0.8 0.6L-1 0.2L-1 -0.2L-0.8 -0.6L-0.4 -0.9Z" fill="#297EA6"></path></g><g transform="translate(650 163)"><path d="M0 -6L2.6 -5.4L4.7 -3.7L5.8 -1.3L5.8 1.3L4.7 3.7L2.6 5.4L0 6L-2.6 5.4L-4.7 3.7L-5.8 1.3L-5.8 -1.3L-4.7 -3.7L-2.6 -5.4Z" fill="#297EA6"></path></g><g transform="translate(938 319)"><path d="M0 -1L0.4 -0.9L0.8 -0.6L1 -0.2L1 0.2L0.8 0.6L0.4 0.9L0 1L-0.4 0.9L-0.8 0.6L-1 0.2L-1 -0.2L-0.8 -0.6L-0.4 -0.9Z" fill="#297EA6"></path></g><g transform="translate(623 410)"><path d="M0 -4L1.7 -3.6L3.1 -2.5L3.9 -0.9L3.9 0.9L3.1 2.5L1.7 3.6L0 4L-1.7 3.6L-3.1 2.5L-3.9 0.9L-3.9 -0.9L-3.1 -2.5L-1.7 -3.6Z" fill="#297EA6"></path></g><g transform="translate(278 360)"><path d="M0 -6L2.6 -5.4L4.7 -3.7L5.8 -1.3L5.8 1.3L4.7 3.7L2.6 5.4L0 6L-2.6 5.4L-4.7 3.7L-5.8 1.3L-5.8 -1.3L-4.7 -3.7L-2.6 -5.4Z" fill="#297EA6"></path></g><g transform="translate(769 450)"><path d="M0 -1L0.4 -0.9L0.8 -0.6L1 -0.2L1 0.2L0.8 0.6L0.4 0.9L0 1L-0.4 0.9L-0.8 0.6L-1 0.2L-1 -0.2L-0.8 -0.6L-0.4 -0.9Z" fill="#297EA6"></path></g><g transform="translate(639 89)"><path d="M0 -11L4.8 -9.9L8.6 -6.9L10.7 -2.4L10.7 2.4L8.6 6.9L4.8 9.9L0 11L-4.8 9.9L-8.6 6.9L-10.7 2.4L-10.7 -2.4L-8.6 -6.9L-4.8 -9.9Z" fill="#297EA6"></path></g><g transform="translate(574 473)"><path d="M0 -9L3.9 -8.1L7 -5.6L8.8 -2L8.8 2L7 5.6L3.9 8.1L0 9L-3.9 8.1L-7 5.6L-8.8 2L-8.8 -2L-7 -5.6L-3.9 -8.1Z" fill="#297EA6"></path></g><g transform="translate(460 328)"><path d="M0 -5L2.2 -4.5L3.9 -3.1L4.9 -1.1L4.9 1.1L3.9 3.1L2.2 4.5L0 5L-2.2 4.5L-3.9 3.1L-4.9 1.1L-4.9 -1.1L-3.9 -3.1L-2.2 -4.5Z" fill="#297EA6"></path></g><g transform="translate(517 428)"><path d="M0 -8L3.5 -7.2L6.3 -5L7.8 -1.8L7.8 1.8L6.3 5L3.5 7.2L0 8L-3.5 7.2L-6.3 5L-7.8 1.8L-7.8 -1.8L-6.3 -5L-3.5 -7.2Z" fill="#297EA6"></path></g><g transform="translate(415 100)"><path d="M0 -5L2.2 -4.5L3.9 -3.1L4.9 -1.1L4.9 1.1L3.9 3.1L2.2 4.5L0 5L-2.2 4.5L-3.9 3.1L-4.9 1.1L-4.9 -1.1L-3.9 -3.1L-2.2 -4.5Z" fill="#297EA6"></path></g><g transform="translate(239 306)"><path d="M0 -4L1.7 -3.6L3.1 -2.5L3.9 -0.9L3.9 0.9L3.1 2.5L1.7 3.6L0 4L-1.7 3.6L-3.1 2.5L-3.9 0.9L-3.9 -0.9L-3.1 -2.5L-1.7 -3.6Z" fill="#297EA6"></path></g><g transform="translate(336 426)"><path d="M0 -2L0.9 -1.8L1.6 -1.2L1.9 -0.4L1.9 0.4L1.6 1.2L0.9 1.8L0 2L-0.9 1.8L-1.6 1.2L-1.9 0.4L-1.9 -0.4L-1.6 -1.2L-0.9 -1.8Z" fill="#297EA6"></path></g><g transform="translate(927 103)"><path d="M0 -8L3.5 -7.2L6.3 -5L7.8 -1.8L7.8 1.8L6.3 5L3.5 7.2L0 8L-3.5 7.2L-6.3 5L-7.8 1.8L-7.8 -1.8L-6.3 -5L-3.5 -7.2Z" fill="#297EA6"></path></g><g transform="translate(220 455)"><path d="M0 -3L1.3 -2.7L2.3 -1.9L2.9 -0.7L2.9 0.7L2.3 1.9L1.3 2.7L0 3L-1.3 2.7L-2.3 1.9L-2.9 0.7L-2.9 -0.7L-2.3 -1.9L-1.3 -2.7Z" fill="#297EA6"></path></g><g transform="translate(354 34)"><path d="M0 -9L3.9 -8.1L7 -5.6L8.8 -2L8.8 2L7 5.6L3.9 8.1L0 9L-3.9 8.1L-7 5.6L-8.8 2L-8.8 -2L-7 -5.6L-3.9 -8.1Z" fill="#297EA6"></path></g><g transform="translate(490 401)"><path d="M0 -1L0.4 -0.9L0.8 -0.6L1 -0.2L1 0.2L0.8 0.6L0.4 0.9L0 1L-0.4 0.9L-0.8 0.6L-1 0.2L-1 -0.2L-0.8 -0.6L-0.4 -0.9Z" fill="#297EA6"></path></g><g transform="translate(827 261)"><path d="M0 -5L2.2 -4.5L3.9 -3.1L4.9 -1.1L4.9 1.1L3.9 3.1L2.2 4.5L0 5L-2.2 4.5L-3.9 3.1L-4.9 1.1L-4.9 -1.1L-3.9 -3.1L-2.2 -4.5Z" fill="#297EA6"></path></g><g transform="translate(245 409)"><path d="M0 -8L3.5 -7.2L6.3 -5L7.8 -1.8L7.8 1.8L6.3 5L3.5 7.2L0 8L-3.5 7.2L-6.3 5L-7.8 1.8L-7.8 -1.8L-6.3 -5L-3.5 -7.2Z" fill="#297EA6"></path></g><g transform="translate(908 379)"><path d="M0 -10L4.3 -9L7.8 -6.2L9.7 -2.2L9.7 2.2L7.8 6.2L4.3 9L0 10L-4.3 9L-7.8 6.2L-9.7 2.2L-9.7 -2.2L-7.8 -6.2L-4.3 -9Z" fill="#297EA6"></path></g><g transform="translate(723 119)"><path d="M0 -4L1.7 -3.6L3.1 -2.5L3.9 -0.9L3.9 0.9L3.1 2.5L1.7 3.6L0 4L-1.7 3.6L-3.1 2.5L-3.9 0.9L-3.9 -0.9L-3.1 -2.5L-1.7 -3.6Z" fill="#297EA6"></path></g><g transform="translate(945 440)"><path d="M0 -4L1.7 -3.6L3.1 -2.5L3.9 -0.9L3.9 0.9L3.1 2.5L1.7 3.6L0 4L-1.7 3.6L-3.1 2.5L-3.9 0.9L-3.9 -0.9L-3.1 -2.5L-1.7 -3.6Z" fill="#297EA6"></path></g><g transform="translate(158 185)"><path d="M0 -2L0.9 -1.8L1.6 -1.2L1.9 -0.4L1.9 0.4L1.6 1.2L0.9 1.8L0 2L-0.9 1.8L-1.6 1.2L-1.9 0.4L-1.9 -0.4L-1.6 -1.2L-0.9 -1.8Z" fill="#297EA6"></path></g><g transform="translate(193 230)"><path d="M0 -11L4.8 -9.9L8.6 -6.9L10.7 -2.4L10.7 2.4L8.6 6.9L4.8 9.9L0 11L-4.8 9.9L-8.6 6.9L-10.7 2.4L-10.7 -2.4L-8.6 -6.9L-4.8 -9.9Z" fill="#297EA6"></path></g><g transform="translate(508 259)"><path d="M0 -9L3.9 -8.1L7 -5.6L8.8 -2L8.8 2L7 5.6L3.9 8.1L0 9L-3.9 8.1L-7 5.6L-8.8 2L-8.8 -2L-7 -5.6L-3.9 -8.1Z" fill="#297EA6"></path></g><g transform="translate(288 422)"><path d="M0 -1L0.4 -0.9L0.8 -0.6L1 -0.2L1 0.2L0.8 0.6L0.4 0.9L0 1L-0.4 0.9L-0.8 0.6L-1 0.2L-1 -0.2L-0.8 -0.6L-0.4 -0.9Z" fill="#297EA6"></path></g><g transform="translate(811 299)"><path d="M0 -2L0.9 -1.8L1.6 -1.2L1.9 -0.4L1.9 0.4L1.6 1.2L0.9 1.8L0 2L-0.9 1.8L-1.6 1.2L-1.9 0.4L-1.9 -0.4L-1.6 -1.2L-0.9 -1.8Z" fill="#297EA6"></path></g><g transform="translate(96 507)"><path d="M0 -9L3.9 -8.1L7 -5.6L8.8 -2L8.8 2L7 5.6L3.9 8.1L0 9L-3.9 8.1L-7 5.6L-8.8 2L-8.8 -2L-7 -5.6L-3.9 -8.1Z" fill="#297EA6"></path></g><g transform="translate(848 494)"><path d="M0 -6L2.6 -5.4L4.7 -3.7L5.8 -1.3L5.8 1.3L4.7 3.7L2.6 5.4L0 6L-2.6 5.4L-4.7 3.7L-5.8 1.3L-5.8 -1.3L-4.7 -3.7L-2.6 -5.4Z" fill="#297EA6"></path></g><g transform="translate(138 312)"><path d="M0 -2L0.9 -1.8L1.6 -1.2L1.9 -0.4L1.9 0.4L1.6 1.2L0.9 1.8L0 2L-0.9 1.8L-1.6 1.2L-1.9 0.4L-1.9 -0.4L-1.6 -1.2L-0.9 -1.8Z" fill="#297EA6"></path></g><g transform="translate(479 468)"><path d="M0 -9L3.9 -8.1L7 -5.6L8.8 -2L8.8 2L7 5.6L3.9 8.1L0 9L-3.9 8.1L-7 5.6L-8.8 2L-8.8 -2L-7 -5.6L-3.9 -8.1Z" fill="#297EA6"></path></g><g transform="translate(242 354)"><path d="M0 -2L0.9 -1.8L1.6 -1.2L1.9 -0.4L1.9 0.4L1.6 1.2L0.9 1.8L0 2L-0.9 1.8L-1.6 1.2L-1.9 0.4L-1.9 -0.4L-1.6 -1.2L-0.9 -1.8Z" fill="#297EA6"></path></g><g transform="translate(20 170)"><path d="M0 -10L4.3 -9L7.8 -6.2L9.7 -2.2L9.7 2.2L7.8 6.2L4.3 9L0 10L-4.3 9L-7.8 6.2L-9.7 2.2L-9.7 -2.2L-7.8 -6.2L-4.3 -9Z" fill="#297EA6"></path></g><g transform="translate(565 377)"><path d="M0 -5L2.2 -4.5L3.9 -3.1L4.9 -1.1L4.9 1.1L3.9 3.1L2.2 4.5L0 5L-2.2 4.5L-3.9 3.1L-4.9 1.1L-4.9 -1.1L-3.9 -3.1L-2.2 -4.5Z" fill="#297EA6"></path></g><g transform="translate(292 145)"><path d="M0 -2L0.9 -1.8L1.6 -1.2L1.9 -0.4L1.9 0.4L1.6 1.2L0.9 1.8L0 2L-0.9 1.8L-1.6 1.2L-1.9 0.4L-1.9 -0.4L-1.6 -1.2L-0.9 -1.8Z" fill="#297EA6"></path></g><g transform="translate(164 472)"><path d="M0 -4L1.7 -3.6L3.1 -2.5L3.9 -0.9L3.9 0.9L3.1 2.5L1.7 3.6L0 4L-1.7 3.6L-3.1 2.5L-3.9 0.9L-3.9 -0.9L-3.1 -2.5L-1.7 -3.6Z" fill="#297EA6"></path></g><g transform="translate(402 475)"><path d="M0 -4L1.7 -3.6L3.1 -2.5L3.9 -0.9L3.9 0.9L3.1 2.5L1.7 3.6L0 4L-1.7 3.6L-3.1 2.5L-3.9 0.9L-3.9 -0.9L-3.1 -2.5L-1.7 -3.6Z" fill="#297EA6"></path></g><g transform="translate(840 72)"><path d="M0 -11L4.8 -9.9L8.6 -6.9L10.7 -2.4L10.7 2.4L8.6 6.9L4.8 9.9L0 11L-4.8 9.9L-8.6 6.9L-10.7 2.4L-10.7 -2.4L-8.6 -6.9L-4.8 -9.9Z" fill="#297EA6"></path></g><g transform="translate(787 93)"><path d="M0 -11L4.8 -9.9L8.6 -6.9L10.7 -2.4L10.7 2.4L8.6 6.9L4.8 9.9L0 11L-4.8 9.9L-8.6 6.9L-10.7 2.4L-10.7 -2.4L-8.6 -6.9L-4.8 -9.9Z" fill="#297EA6"></path></g><g transform="translate(367 293)"><path d="M0 -11L4.8 -9.9L8.6 -6.9L10.7 -2.4L10.7 2.4L8.6 6.9L4.8 9.9L0 11L-4.8 9.9L-8.6 6.9L-10.7 2.4L-10.7 -2.4L-8.6 -6.9L-4.8 -9.9Z" fill="#297EA6"></path></g><g transform="translate(708 41)"><path d="M0 -10L4.3 -9L7.8 -6.2L9.7 -2.2L9.7 2.2L7.8 6.2L4.3 9L0 10L-4.3 9L-7.8 6.2L-9.7 2.2L-9.7 -2.2L-7.8 -6.2L-4.3 -9Z" fill="#297EA6"></path></g><g transform="translate(725 148)"><path d="M0 -2L0.9 -1.8L1.6 -1.2L1.9 -0.4L1.9 0.4L1.6 1.2L0.9 1.8L0 2L-0.9 1.8L-1.6 1.2L-1.9 0.4L-1.9 -0.4L-1.6 -1.2L-0.9 -1.8Z" fill="#297EA6"></path></g><g transform="translate(59 226)"><path d="M0 -6L2.6 -5.4L4.7 -3.7L5.8 -1.3L5.8 1.3L4.7 3.7L2.6 5.4L0 6L-2.6 5.4L-4.7 3.7L-5.8 1.3L-5.8 -1.3L-4.7 -3.7L-2.6 -5.4Z" fill="#297EA6"></path></g><g transform="translate(605 254)"><path d="M0 -5L2.2 -4.5L3.9 -3.1L4.9 -1.1L4.9 1.1L3.9 3.1L2.2 4.5L0 5L-2.2 4.5L-3.9 3.1L-4.9 1.1L-4.9 -1.1L-3.9 -3.1L-2.2 -4.5Z" fill="#297EA6"></path></g><g transform="translate(591 381)"><path d="M0 -4L1.7 -3.6L3.1 -2.5L3.9 -0.9L3.9 0.9L3.1 2.5L1.7 3.6L0 4L-1.7 3.6L-3.1 2.5L-3.9 0.9L-3.9 -0.9L-3.1 -2.5L-1.7 -3.6Z" fill="#297EA6"></path></g><g transform="translate(97 14)"><path d="M0 -3L1.3 -2.7L2.3 -1.9L2.9 -0.7L2.9 0.7L2.3 1.9L1.3 2.7L0 3L-1.3 2.7L-2.3 1.9L-2.9 0.7L-2.9 -0.7L-2.3 -1.9L-1.3 -2.7Z" fill="#297EA6"></path></g><g transform="translate(336 192)"><path d="M0 -6L2.6 -5.4L4.7 -3.7L5.8 -1.3L5.8 1.3L4.7 3.7L2.6 5.4L0 6L-2.6 5.4L-4.7 3.7L-5.8 1.3L-5.8 -1.3L-4.7 -3.7L-2.6 -5.4Z" fill="#297EA6"></path></g><g transform="translate(609 130)"><path d="M0 -5L2.2 -4.5L3.9 -3.1L4.9 -1.1L4.9 1.1L3.9 3.1L2.2 4.5L0 5L-2.2 4.5L-3.9 3.1L-4.9 1.1L-4.9 -1.1L-3.9 -3.1L-2.2 -4.5Z" fill="#297EA6"></path></g><g transform="translate(423 410)"><path d="M0 -2L0.9 -1.8L1.6 -1.2L1.9 -0.4L1.9 0.4L1.6 1.2L0.9 1.8L0 2L-0.9 1.8L-1.6 1.2L-1.9 0.4L-1.9 -0.4L-1.6 -1.2L-0.9 -1.8Z" fill="#297EA6"></path></g><g transform="translate(788 426)"><path d="M0 -10L4.3 -9L7.8 -6.2L9.7 -2.2L9.7 2.2L7.8 6.2L4.3 9L0 10L-4.3 9L-7.8 6.2L-9.7 2.2L-9.7 -2.2L-7.8 -6.2L-4.3 -9Z" fill="#297EA6"></path></g><g transform="translate(382 375)"><path d="M0 -4L1.7 -3.6L3.1 -2.5L3.9 -0.9L3.9 0.9L3.1 2.5L1.7 3.6L0 4L-1.7 3.6L-3.1 2.5L-3.9 0.9L-3.9 -0.9L-3.1 -2.5L-1.7 -3.6Z" fill="#297EA6"></path></g><g transform="translate(21 313)"><path d="M0 -6L2.6 -5.4L4.7 -3.7L5.8 -1.3L5.8 1.3L4.7 3.7L2.6 5.4L0 6L-2.6 5.4L-4.7 3.7L-5.8 1.3L-5.8 -1.3L-4.7 -3.7L-2.6 -5.4Z" fill="#297EA6"></path></g><g transform="translate(118 176)"><path d="M0 -2L0.9 -1.8L1.6 -1.2L1.9 -0.4L1.9 0.4L1.6 1.2L0.9 1.8L0 2L-0.9 1.8L-1.6 1.2L-1.9 0.4L-1.9 -0.4L-1.6 -1.2L-0.9 -1.8Z" fill="#297EA6"></path></g><g transform="translate(322 62)"><path d="M0 -4L1.7 -3.6L3.1 -2.5L3.9 -0.9L3.9 0.9L3.1 2.5L1.7 3.6L0 4L-1.7 3.6L-3.1 2.5L-3.9 0.9L-3.9 -0.9L-3.1 -2.5L-1.7 -3.6Z" fill="#297EA6"></path></g><g transform="translate(354 224)"><path d="M0 -9L3.9 -8.1L7 -5.6L8.8 -2L8.8 2L7 5.6L3.9 8.1L0 9L-3.9 8.1L-7 5.6L-8.8 2L-8.8 -2L-7 -5.6L-3.9 -8.1Z" fill="#297EA6"></path></g><g transform="translate(887 39)"><path d="M0 -7L3 -6.3L5.5 -4.4L6.8 -1.6L6.8 1.6L5.5 4.4L3 6.3L0 7L-3 6.3L-5.5 4.4L-6.8 1.6L-6.8 -1.6L-5.5 -4.4L-3 -6.3Z" fill="#297EA6"></path></g><g transform="translate(874 356)"><path d="M0 -1L0.4 -0.9L0.8 -0.6L1 -0.2L1 0.2L0.8 0.6L0.4 0.9L0 1L-0.4 0.9L-0.8 0.6L-1 0.2L-1 -0.2L-0.8 -0.6L-0.4 -0.9Z" fill="#297EA6"></path></g><g transform="translate(545 156)"><path d="M0 -7L3 -6.3L5.5 -4.4L6.8 -1.6L6.8 1.6L5.5 4.4L3 6.3L0 7L-3 6.3L-5.5 4.4L-6.8 1.6L-6.8 -1.6L-5.5 -4.4L-3 -6.3Z" fill="#297EA6"></path></g><g transform="translate(385 501)"><path d="M0 -11L4.8 -9.9L8.6 -6.9L10.7 -2.4L10.7 2.4L8.6 6.9L4.8 9.9L0 11L-4.8 9.9L-8.6 6.9L-10.7 2.4L-10.7 -2.4L-8.6 -6.9L-4.8 -9.9Z" fill="#297EA6"></path></g><g transform="translate(245 213)"><path d="M0 -2L0.9 -1.8L1.6 -1.2L1.9 -0.4L1.9 0.4L1.6 1.2L0.9 1.8L0 2L-0.9 1.8L-1.6 1.2L-1.9 0.4L-1.9 -0.4L-1.6 -1.2L-0.9 -1.8Z" fill="#297EA6"></path></g><g transform="translate(357 397)"><path d="M0 -9L3.9 -8.1L7 -5.6L8.8 -2L8.8 2L7 5.6L3.9 8.1L0 9L-3.9 8.1L-7 5.6L-8.8 2L-8.8 -2L-7 -5.6L-3.9 -8.1Z" fill="#297EA6"></path></g><g transform="translate(939 50)"><path d="M0 -6L2.6 -5.4L4.7 -3.7L5.8 -1.3L5.8 1.3L4.7 3.7L2.6 5.4L0 6L-2.6 5.4L-4.7 3.7L-5.8 1.3L-5.8 -1.3L-4.7 -3.7L-2.6 -5.4Z" fill="#297EA6"></path></g><g transform="translate(544 268)"><path d="M0 -10L4.3 -9L7.8 -6.2L9.7 -2.2L9.7 2.2L7.8 6.2L4.3 9L0 10L-4.3 9L-7.8 6.2L-9.7 2.2L-9.7 -2.2L-7.8 -6.2L-4.3 -9Z" fill="#297EA6"></path></g><g transform="translate(530 373)"><path d="M0 -8L3.5 -7.2L6.3 -5L7.8 -1.8L7.8 1.8L6.3 5L3.5 7.2L0 8L-3.5 7.2L-6.3 5L-7.8 1.8L-7.8 -1.8L-6.3 -5L-3.5 -7.2Z" fill="#297EA6"></path></g><g transform="translate(148 498)"><path d="M0 -11L4.8 -9.9L8.6 -6.9L10.7 -2.4L10.7 2.4L8.6 6.9L4.8 9.9L0 11L-4.8 9.9L-8.6 6.9L-10.7 2.4L-10.7 -2.4L-8.6 -6.9L-4.8 -9.9Z" fill="#297EA6"></path></g><g transform="translate(469 87)"><path d="M0 -10L4.3 -9L7.8 -6.2L9.7 -2.2L9.7 2.2L7.8 6.2L4.3 9L0 10L-4.3 9L-7.8 6.2L-9.7 2.2L-9.7 -2.2L-7.8 -6.2L-4.3 -9Z" fill="#297EA6"></path></g><g transform="translate(616 157)"><path d="M0 -10L4.3 -9L7.8 -6.2L9.7 -2.2L9.7 2.2L7.8 6.2L4.3 9L0 10L-4.3 9L-7.8 6.2L-9.7 2.2L-9.7 -2.2L-7.8 -6.2L-4.3 -9Z" fill="#297EA6"></path></g><g transform="translate(96 353)"><path d="M0 -3L1.3 -2.7L2.3 -1.9L2.9 -0.7L2.9 0.7L2.3 1.9L1.3 2.7L0 3L-1.3 2.7L-2.3 1.9L-2.9 0.7L-2.9 -0.7L-2.3 -1.9L-1.3 -2.7Z" fill="#297EA6"></path></g><g transform="translate(98 117)"><path d="M0 -2L0.9 -1.8L1.6 -1.2L1.9 -0.4L1.9 0.4L1.6 1.2L0.9 1.8L0 2L-0.9 1.8L-1.6 1.2L-1.9 0.4L-1.9 -0.4L-1.6 -1.2L-0.9 -1.8Z" fill="#297EA6"></path></g><g transform="translate(661 226)"><path d="M0 -6L2.6 -5.4L4.7 -3.7L5.8 -1.3L5.8 1.3L4.7 3.7L2.6 5.4L0 6L-2.6 5.4L-4.7 3.7L-5.8 1.3L-5.8 -1.3L-4.7 -3.7L-2.6 -5.4Z" fill="#297EA6"></path></g><g transform="translate(273 520)"><path d="M0 -1L0.4 -0.9L0.8 -0.6L1 -0.2L1 0.2L0.8 0.6L0.4 0.9L0 1L-0.4 0.9L-0.8 0.6L-1 0.2L-1 -0.2L-0.8 -0.6L-0.4 -0.9Z" fill="#297EA6"></path></g><g transform="translate(577 85)"><path d="M0 -6L2.6 -5.4L4.7 -3.7L5.8 -1.3L5.8 1.3L4.7 3.7L2.6 5.4L0 6L-2.6 5.4L-4.7 3.7L-5.8 1.3L-5.8 -1.3L-4.7 -3.7L-2.6 -5.4Z" fill="#297EA6"></path></g><g transform="translate(932 129)"><path d="M0 -4L1.7 -3.6L3.1 -2.5L3.9 -0.9L3.9 0.9L3.1 2.5L1.7 3.6L0 4L-1.7 3.6L-3.1 2.5L-3.9 0.9L-3.9 -0.9L-3.1 -2.5L-1.7 -3.6Z" fill="#297EA6"></path></g><g transform="translate(421 441)"><path d="M0 -8L3.5 -7.2L6.3 -5L7.8 -1.8L7.8 1.8L6.3 5L3.5 7.2L0 8L-3.5 7.2L-6.3 5L-7.8 1.8L-7.8 -1.8L-6.3 -5L-3.5 -7.2Z" fill="#297EA6"></path></g><g transform="translate(753 425)"><path d="M0 -10L4.3 -9L7.8 -6.2L9.7 -2.2L9.7 2.2L7.8 6.2L4.3 9L0 10L-4.3 9L-7.8 6.2L-9.7 2.2L-9.7 -2.2L-7.8 -6.2L-4.3 -9Z" fill="#297EA6"></path></g><g transform="translate(442 106)"><path d="M0 -4L1.7 -3.6L3.1 -2.5L3.9 -0.9L3.9 0.9L3.1 2.5L1.7 3.6L0 4L-1.7 3.6L-3.1 2.5L-3.9 0.9L-3.9 -0.9L-3.1 -2.5L-1.7 -3.6Z" fill="#297EA6"></path></g><g transform="translate(527 343)"><path d="M0 -7L3 -6.3L5.5 -4.4L6.8 -1.6L6.8 1.6L5.5 4.4L3 6.3L0 7L-3 6.3L-5.5 4.4L-6.8 1.6L-6.8 -1.6L-5.5 -4.4L-3 -6.3Z" fill="#297EA6"></path></g><g transform="translate(37 525)"><path d="M0 -8L3.5 -7.2L6.3 -5L7.8 -1.8L7.8 1.8L6.3 5L3.5 7.2L0 8L-3.5 7.2L-6.3 5L-7.8 1.8L-7.8 -1.8L-6.3 -5L-3.5 -7.2Z" fill="#297EA6"></path></g><g transform="translate(181 113)"><path d="M0 -10L4.3 -9L7.8 -6.2L9.7 -2.2L9.7 2.2L7.8 6.2L4.3 9L0 10L-4.3 9L-7.8 6.2L-9.7 2.2L-9.7 -2.2L-7.8 -6.2L-4.3 -9Z" fill="#297EA6"></path></g><g transform="translate(151 373)"><path d="M0 -11L4.8 -9.9L8.6 -6.9L10.7 -2.4L10.7 2.4L8.6 6.9L4.8 9.9L0 11L-4.8 9.9L-8.6 6.9L-10.7 2.4L-10.7 -2.4L-8.6 -6.9L-4.8 -9.9Z" fill="#297EA6"></path></g><g transform="translate(312 522)"><path d="M0 -4L1.7 -3.6L3.1 -2.5L3.9 -0.9L3.9 0.9L3.1 2.5L1.7 3.6L0 4L-1.7 3.6L-3.1 2.5L-3.9 0.9L-3.9 -0.9L-3.1 -2.5L-1.7 -3.6Z" fill="#297EA6"></path></g><g transform="translate(76 385)"><path d="M0 -3L1.3 -2.7L2.3 -1.9L2.9 -0.7L2.9 0.7L2.3 1.9L1.3 2.7L0 3L-1.3 2.7L-2.3 1.9L-2.9 0.7L-2.9 -0.7L-2.3 -1.9L-1.3 -2.7Z" fill="#297EA6"></path></g><g transform="translate(24 133)"><path d="M0 -8L3.5 -7.2L6.3 -5L7.8 -1.8L7.8 1.8L6.3 5L3.5 7.2L0 8L-3.5 7.2L-6.3 5L-7.8 1.8L-7.8 -1.8L-6.3 -5L-3.5 -7.2Z" fill="#297EA6"></path></g><g transform="translate(251 22)"><path d="M0 -2L0.9 -1.8L1.6 -1.2L1.9 -0.4L1.9 0.4L1.6 1.2L0.9 1.8L0 2L-0.9 1.8L-1.6 1.2L-1.9 0.4L-1.9 -0.4L-1.6 -1.2L-0.9 -1.8Z" fill="#297EA6"></path></g><g transform="translate(321 118)"><path d="M0 -5L2.2 -4.5L3.9 -3.1L4.9 -1.1L4.9 1.1L3.9 3.1L2.2 4.5L0 5L-2.2 4.5L-3.9 3.1L-4.9 1.1L-4.9 -1.1L-3.9 -3.1L-2.2 -4.5Z" fill="#297EA6"></path></g><g transform="translate(146 407)"><path d="M0 -1L0.4 -0.9L0.8 -0.6L1 -0.2L1 0.2L0.8 0.6L0.4 0.9L0 1L-0.4 0.9L-0.8 0.6L-1 0.2L-1 -0.2L-0.8 -0.6L-0.4 -0.9Z" fill="#297EA6"></path></g><g transform="translate(206 151)"><path d="M0 -6L2.6 -5.4L4.7 -3.7L5.8 -1.3L5.8 1.3L4.7 3.7L2.6 5.4L0 6L-2.6 5.4L-4.7 3.7L-5.8 1.3L-5.8 -1.3L-4.7 -3.7L-2.6 -5.4Z" fill="#297EA6"></path></g><g transform="translate(341 150)"><path d="M0 -4L1.7 -3.6L3.1 -2.5L3.9 -0.9L3.9 0.9L3.1 2.5L1.7 3.6L0 4L-1.7 3.6L-3.1 2.5L-3.9 0.9L-3.9 -0.9L-3.1 -2.5L-1.7 -3.6Z" fill="#297EA6"></path></g><g transform="translate(130 74)"><path d="M0 -5L2.2 -4.5L3.9 -3.1L4.9 -1.1L4.9 1.1L3.9 3.1L2.2 4.5L0 5L-2.2 4.5L-3.9 3.1L-4.9 1.1L-4.9 -1.1L-3.9 -3.1L-2.2 -4.5Z" fill="#297EA6"></path></g><g transform="translate(870 527)"><path d="M0 -8L3.5 -7.2L6.3 -5L7.8 -1.8L7.8 1.8L6.3 5L3.5 7.2L0 8L-3.5 7.2L-6.3 5L-7.8 1.8L-7.8 -1.8L-6.3 -5L-3.5 -7.2Z" fill="#297EA6"></path></g><g transform="translate(579 445)"><path d="M0 -7L3 -6.3L5.5 -4.4L6.8 -1.6L6.8 1.6L5.5 4.4L3 6.3L0 7L-3 6.3L-5.5 4.4L-6.8 1.6L-6.8 -1.6L-5.5 -4.4L-3 -6.3Z" fill="#297EA6"></path></g><g transform="translate(821 161)"><path d="M0 -3L1.3 -2.7L2.3 -1.9L2.9 -0.7L2.9 0.7L2.3 1.9L1.3 2.7L0 3L-1.3 2.7L-2.3 1.9L-2.9 0.7L-2.9 -0.7L-2.3 -1.9L-1.3 -2.7Z" fill="#297EA6"></path></g><g transform="translate(162 345)"><path d="M0 -4L1.7 -3.6L3.1 -2.5L3.9 -0.9L3.9 0.9L3.1 2.5L1.7 3.6L0 4L-1.7 3.6L-3.1 2.5L-3.9 0.9L-3.9 -0.9L-3.1 -2.5L-1.7 -3.6Z" fill="#297EA6"></path></g><g transform="translate(194 497)"><path d="M0 -1L0.4 -0.9L0.8 -0.6L1 -0.2L1 0.2L0.8 0.6L0.4 0.9L0 1L-0.4 0.9L-0.8 0.6L-1 0.2L-1 -0.2L-0.8 -0.6L-0.4 -0.9Z" fill="#297EA6"></path></g><g transform="translate(537 499)"><path d="M0 -3L1.3 -2.7L2.3 -1.9L2.9 -0.7L2.9 0.7L2.3 1.9L1.3 2.7L0 3L-1.3 2.7L-2.3 1.9L-2.9 0.7L-2.9 -0.7L-2.3 -1.9L-1.3 -2.7Z" fill="#297EA6"></path></g><g transform="translate(375 266)"><path d="M0 -1L0.4 -0.9L0.8 -0.6L1 -0.2L1 0.2L0.8 0.6L0.4 0.9L0 1L-0.4 0.9L-0.8 0.6L-1 0.2L-1 -0.2L-0.8 -0.6L-0.4 -0.9Z" fill="#297EA6"></path></g><g transform="translate(699 104)"><path d="M0 -7L3 -6.3L5.5 -4.4L6.8 -1.6L6.8 1.6L5.5 4.4L3 6.3L0 7L-3 6.3L-5.5 4.4L-6.8 1.6L-6.8 -1.6L-5.5 -4.4L-3 -6.3Z" fill="#297EA6"></path></g><g transform="translate(752 317)"><path d="M0 -1L0.4 -0.9L0.8 -0.6L1 -0.2L1 0.2L0.8 0.6L0.4 0.9L0 1L-0.4 0.9L-0.8 0.6L-1 0.2L-1 -0.2L-0.8 -0.6L-0.4 -0.9Z" fill="#297EA6"></path></g><g transform="translate(49 462)"><path d="M0 -10L4.3 -9L7.8 -6.2L9.7 -2.2L9.7 2.2L7.8 6.2L4.3 9L0 10L-4.3 9L-7.8 6.2L-9.7 2.2L-9.7 -2.2L-7.8 -6.2L-4.3 -9Z" fill="#297EA6"></path></g><g transform="translate(791 139)"><path d="M0 -10L4.3 -9L7.8 -6.2L9.7 -2.2L9.7 2.2L7.8 6.2L4.3 9L0 10L-4.3 9L-7.8 6.2L-9.7 2.2L-9.7 -2.2L-7.8 -6.2L-4.3 -9Z" fill="#297EA6"></path></g><g transform="translate(708 410)"><path d="M0 -2L0.9 -1.8L1.6 -1.2L1.9 -0.4L1.9 0.4L1.6 1.2L0.9 1.8L0 2L-0.9 1.8L-1.6 1.2L-1.9 0.4L-1.9 -0.4L-1.6 -1.2L-0.9 -1.8Z" fill="#297EA6"></path></g><g transform="translate(674 109)"><path d="M0 -4L1.7 -3.6L3.1 -2.5L3.9 -0.9L3.9 0.9L3.1 2.5L1.7 3.6L0 4L-1.7 3.6L-3.1 2.5L-3.9 0.9L-3.9 -0.9L-3.1 -2.5L-1.7 -3.6Z" fill="#297EA6"></path></g><g transform="translate(458 186)"><path d="M0 -5L2.2 -4.5L3.9 -3.1L4.9 -1.1L4.9 1.1L3.9 3.1L2.2 4.5L0 5L-2.2 4.5L-3.9 3.1L-4.9 1.1L-4.9 -1.1L-3.9 -3.1L-2.2 -4.5Z" fill="#297EA6"></path></g><g transform="translate(689 488)"><path d="M0 -1L0.4 -0.9L0.8 -0.6L1 -0.2L1 0.2L0.8 0.6L0.4 0.9L0 1L-0.4 0.9L-0.8 0.6L-1 0.2L-1 -0.2L-0.8 -0.6L-0.4 -0.9Z" fill="#297EA6"></path></g><g transform="translate(102 384)"><path d="M0 -9L3.9 -8.1L7 -5.6L8.8 -2L8.8 2L7 5.6L3.9 8.1L0 9L-3.9 8.1L-7 5.6L-8.8 2L-8.8 -2L-7 -5.6L-3.9 -8.1Z" fill="#297EA6"></path></g><g transform="translate(573 15)"><path d="M0 -3L1.3 -2.7L2.3 -1.9L2.9 -0.7L2.9 0.7L2.3 1.9L1.3 2.7L0 3L-1.3 2.7L-2.3 1.9L-2.9 0.7L-2.9 -0.7L-2.3 -1.9L-1.3 -2.7Z" fill="#297EA6"></path></g><g transform="translate(890 14)"><path d="M0 -4L1.7 -3.6L3.1 -2.5L3.9 -0.9L3.9 0.9L3.1 2.5L1.7 3.6L0 4L-1.7 3.6L-3.1 2.5L-3.9 0.9L-3.9 -0.9L-3.1 -2.5L-1.7 -3.6Z" fill="#297EA6"></path></g><g transform="translate(941 393)"><path d="M0 -6L2.6 -5.4L4.7 -3.7L5.8 -1.3L5.8 1.3L4.7 3.7L2.6 5.4L0 6L-2.6 5.4L-4.7 3.7L-5.8 1.3L-5.8 -1.3L-4.7 -3.7L-2.6 -5.4Z" fill="#297EA6"></path></g><g transform="translate(914 481)"><path d="M0 -10L4.3 -9L7.8 -6.2L9.7 -2.2L9.7 2.2L7.8 6.2L4.3 9L0 10L-4.3 9L-7.8 6.2L-9.7 2.2L-9.7 -2.2L-7.8 -6.2L-4.3 -9Z" fill="#297EA6"></path></g><g transform="translate(109 205)"><path d="M0 -9L3.9 -8.1L7 -5.6L8.8 -2L8.8 2L7 5.6L3.9 8.1L0 9L-3.9 8.1L-7 5.6L-8.8 2L-8.8 -2L-7 -5.6L-3.9 -8.1Z" fill="#297EA6"></path></g><g transform="translate(920 507)"><path d="M0 -8L3.5 -7.2L6.3 -5L7.8 -1.8L7.8 1.8L6.3 5L3.5 7.2L0 8L-3.5 7.2L-6.3 5L-7.8 1.8L-7.8 -1.8L-6.3 -5L-3.5 -7.2Z" fill="#297EA6"></path></g><g transform="translate(427 237)"><path d="M0 -8L3.5 -7.2L6.3 -5L7.8 -1.8L7.8 1.8L6.3 5L3.5 7.2L0 8L-3.5 7.2L-6.3 5L-7.8 1.8L-7.8 -1.8L-6.3 -5L-3.5 -7.2Z" fill="#297EA6"></path></g><g transform="translate(619 38)"><path d="M0 -2L0.9 -1.8L1.6 -1.2L1.9 -0.4L1.9 0.4L1.6 1.2L0.9 1.8L0 2L-0.9 1.8L-1.6 1.2L-1.9 0.4L-1.9 -0.4L-1.6 -1.2L-0.9 -1.8Z" fill="#297EA6"></path></g><g transform="translate(304 202)"><path d="M0 -8L3.5 -7.2L6.3 -5L7.8 -1.8L7.8 1.8L6.3 5L3.5 7.2L0 8L-3.5 7.2L-6.3 5L-7.8 1.8L-7.8 -1.8L-6.3 -5L-3.5 -7.2Z" fill="#297EA6"></path></g><g transform="translate(111 446)"><path d="M0 -10L4.3 -9L7.8 -6.2L9.7 -2.2L9.7 2.2L7.8 6.2L4.3 9L0 10L-4.3 9L-7.8 6.2L-9.7 2.2L-9.7 -2.2L-7.8 -6.2L-4.3 -9Z" fill="#297EA6"></path></g><g transform="translate(748 376)"><path d="M0 -1L0.4 -0.9L0.8 -0.6L1 -0.2L1 0.2L0.8 0.6L0.4 0.9L0 1L-0.4 0.9L-0.8 0.6L-1 0.2L-1 -0.2L-0.8 -0.6L-0.4 -0.9Z" fill="#297EA6"></path></g><g transform="translate(186 84)"><path d="M0 -1L0.4 -0.9L0.8 -0.6L1 -0.2L1 0.2L0.8 0.6L0.4 0.9L0 1L-0.4 0.9L-0.8 0.6L-1 0.2L-1 -0.2L-0.8 -0.6L-0.4 -0.9Z" fill="#297EA6"></path></g><g transform="translate(511 303)"><path d="M0 -1L0.4 -0.9L0.8 -0.6L1 -0.2L1 0.2L0.8 0.6L0.4 0.9L0 1L-0.4 0.9L-0.8 0.6L-1 0.2L-1 -0.2L-0.8 -0.6L-0.4 -0.9Z" fill="#297EA6"></path></g><g transform="translate(516 527)"><path d="M0 -11L4.8 -9.9L8.6 -6.9L10.7 -2.4L10.7 2.4L8.6 6.9L4.8 9.9L0 11L-4.8 9.9L-8.6 6.9L-10.7 2.4L-10.7 -2.4L-8.6 -6.9L-4.8 -9.9Z" fill="#297EA6"></path></g><g transform="translate(295 233)"><path d="M0 -3L1.3 -2.7L2.3 -1.9L2.9 -0.7L2.9 0.7L2.3 1.9L1.3 2.7L0 3L-1.3 2.7L-2.3 1.9L-2.9 0.7L-2.9 -0.7L-2.3 -1.9L-1.3 -2.7Z" fill="#297EA6"></path></g><g transform="translate(847 233)"><path d="M0 -4L1.7 -3.6L3.1 -2.5L3.9 -0.9L3.9 0.9L3.1 2.5L1.7 3.6L0 4L-1.7 3.6L-3.1 2.5L-3.9 0.9L-3.9 -0.9L-3.1 -2.5L-1.7 -3.6Z" fill="#297EA6"></path></g><g transform="translate(857 432)"><path d="M0 -5L2.2 -4.5L3.9 -3.1L4.9 -1.1L4.9 1.1L3.9 3.1L2.2 4.5L0 5L-2.2 4.5L-3.9 3.1L-4.9 1.1L-4.9 -1.1L-3.9 -3.1L-2.2 -4.5Z" fill="#297EA6"></path></g><g transform="translate(678 422)"><path d="M0 -3L1.3 -2.7L2.3 -1.9L2.9 -0.7L2.9 0.7L2.3 1.9L1.3 2.7L0 3L-1.3 2.7L-2.3 1.9L-2.9 0.7L-2.9 -0.7L-2.3 -1.9L-1.3 -2.7Z" fill="#297EA6"></path></g><g transform="translate(18 370)"><path d="M0 -2L0.9 -1.8L1.6 -1.2L1.9 -0.4L1.9 0.4L1.6 1.2L0.9 1.8L0 2L-0.9 1.8L-1.6 1.2L-1.9 0.4L-1.9 -0.4L-1.6 -1.2L-0.9 -1.8Z" fill="#297EA6"></path></g><g transform="translate(876 136)"><path d="M0 -6L2.6 -5.4L4.7 -3.7L5.8 -1.3L5.8 1.3L4.7 3.7L2.6 5.4L0 6L-2.6 5.4L-4.7 3.7L-5.8 1.3L-5.8 -1.3L-4.7 -3.7L-2.6 -5.4Z" fill="#297EA6"></path></g><g transform="translate(48 161)"><path d="M0 -7L3 -6.3L5.5 -4.4L6.8 -1.6L6.8 1.6L5.5 4.4L3 6.3L0 7L-3 6.3L-5.5 4.4L-6.8 1.6L-6.8 -1.6L-5.5 -4.4L-3 -6.3Z" fill="#297EA6"></path></g><g transform="translate(651 63)"><path d="M0 -7L3 -6.3L5.5 -4.4L6.8 -1.6L6.8 1.6L5.5 4.4L3 6.3L0 7L-3 6.3L-5.5 4.4L-6.8 1.6L-6.8 -1.6L-5.5 -4.4L-3 -6.3Z" fill="#297EA6"></path></g><g transform="translate(924 289)"><path d="M0 -9L3.9 -8.1L7 -5.6L8.8 -2L8.8 2L7 5.6L3.9 8.1L0 9L-3.9 8.1L-7 5.6L-8.8 2L-8.8 -2L-7 -5.6L-3.9 -8.1Z" fill="#297EA6"></path></g><g transform="translate(831 14)"><path d="M0 -10L4.3 -9L7.8 -6.2L9.7 -2.2L9.7 2.2L7.8 6.2L4.3 9L0 10L-4.3 9L-7.8 6.2L-9.7 2.2L-9.7 -2.2L-7.8 -6.2L-4.3 -9Z" fill="#297EA6"></path></g><g transform="translate(348 456)"><path d="M0 -9L3.9 -8.1L7 -5.6L8.8 -2L8.8 2L7 5.6L3.9 8.1L0 9L-3.9 8.1L-7 5.6L-8.8 2L-8.8 -2L-7 -5.6L-3.9 -8.1Z" fill="#297EA6"></path></g><g transform="translate(439 277)"><path d="M0 -3L1.3 -2.7L2.3 -1.9L2.9 -0.7L2.9 0.7L2.3 1.9L1.3 2.7L0 3L-1.3 2.7L-2.3 1.9L-2.9 0.7L-2.9 -0.7L-2.3 -1.9L-1.3 -2.7Z" fill="#297EA6"></path></g><g transform="translate(840 185)"><path d="M0 -5L2.2 -4.5L3.9 -3.1L4.9 -1.1L4.9 1.1L3.9 3.1L2.2 4.5L0 5L-2.2 4.5L-3.9 3.1L-4.9 1.1L-4.9 -1.1L-3.9 -3.1L-2.2 -4.5Z" fill="#297EA6"></path></g><g transform="translate(845 293)"><path d="M0 -11L4.8 -9.9L8.6 -6.9L10.7 -2.4L10.7 2.4L8.6 6.9L4.8 9.9L0 11L-4.8 9.9L-8.6 6.9L-10.7 2.4L-10.7 -2.4L-8.6 -6.9L-4.8 -9.9Z" fill="#297EA6"></path></g><g transform="translate(333 14)"><path d="M0 -11L4.8 -9.9L8.6 -6.9L10.7 -2.4L10.7 2.4L8.6 6.9L4.8 9.9L0 11L-4.8 9.9L-8.6 6.9L-10.7 2.4L-10.7 -2.4L-8.6 -6.9L-4.8 -9.9Z" fill="#297EA6"></path></g><g transform="translate(13 48)"><path d="M0 -1L0.4 -0.9L0.8 -0.6L1 -0.2L1 0.2L0.8 0.6L0.4 0.9L0 1L-0.4 0.9L-0.8 0.6L-1 0.2L-1 -0.2L-0.8 -0.6L-0.4 -0.9Z" fill="#297EA6"></path></g><g transform="translate(895 242)"><path d="M0 -11L4.8 -9.9L8.6 -6.9L10.7 -2.4L10.7 2.4L8.6 6.9L4.8 9.9L0 11L-4.8 9.9L-8.6 6.9L-10.7 2.4L-10.7 -2.4L-8.6 -6.9L-4.8 -9.9Z" fill="#297EA6"></path></g><g transform="translate(913 48)"><path d="M0 -10L4.3 -9L7.8 -6.2L9.7 -2.2L9.7 2.2L7.8 6.2L4.3 9L0 10L-4.3 9L-7.8 6.2L-9.7 2.2L-9.7 -2.2L-7.8 -6.2L-4.3 -9Z" fill="#297EA6"></path></g><g transform="translate(745 257)"><path d="M0 -9L3.9 -8.1L7 -5.6L8.8 -2L8.8 2L7 5.6L3.9 8.1L0 9L-3.9 8.1L-7 5.6L-8.8 2L-8.8 -2L-7 -5.6L-3.9 -8.1Z" fill="#297EA6"></path></g><g transform="translate(31 253)"><path d="M0 -11L4.8 -9.9L8.6 -6.9L10.7 -2.4L10.7 2.4L8.6 6.9L4.8 9.9L0 11L-4.8 9.9L-8.6 6.9L-10.7 2.4L-10.7 -2.4L-8.6 -6.9L-4.8 -9.9Z" fill="#297EA6"></path></g><g transform="translate(714 260)"><path d="M0 -6L2.6 -5.4L4.7 -3.7L5.8 -1.3L5.8 1.3L4.7 3.7L2.6 5.4L0 6L-2.6 5.4L-4.7 3.7L-5.8 1.3L-5.8 -1.3L-4.7 -3.7L-2.6 -5.4Z" fill="#297EA6"></path></g><g transform="translate(582 114)"><path d="M0 -10L4.3 -9L7.8 -6.2L9.7 -2.2L9.7 2.2L7.8 6.2L4.3 9L0 10L-4.3 9L-7.8 6.2L-9.7 2.2L-9.7 -2.2L-7.8 -6.2L-4.3 -9Z" fill="#297EA6"></path></g><g transform="translate(163 444)"><path d="M0 -9L3.9 -8.1L7 -5.6L8.8 -2L8.8 2L7 5.6L3.9 8.1L0 9L-3.9 8.1L-7 5.6L-8.8 2L-8.8 -2L-7 -5.6L-3.9 -8.1Z" fill="#297EA6"></path></g><g transform="translate(124 14)"><path d="M0 -2L0.9 -1.8L1.6 -1.2L1.9 -0.4L1.9 0.4L1.6 1.2L0.9 1.8L0 2L-0.9 1.8L-1.6 1.2L-1.9 0.4L-1.9 -0.4L-1.6 -1.2L-0.9 -1.8Z" fill="#297EA6"></path></g><g transform="translate(219 13)"><path d="M0 -6L2.6 -5.4L4.7 -3.7L5.8 -1.3L5.8 1.3L4.7 3.7L2.6 5.4L0 6L-2.6 5.4L-4.7 3.7L-5.8 1.3L-5.8 -1.3L-4.7 -3.7L-2.6 -5.4Z" fill="#297EA6"></path></g><g transform="translate(510 501)"><path d="M0 -6L2.6 -5.4L4.7 -3.7L5.8 -1.3L5.8 1.3L4.7 3.7L2.6 5.4L0 6L-2.6 5.4L-4.7 3.7L-5.8 1.3L-5.8 -1.3L-4.7 -3.7L-2.6 -5.4Z" fill="#297EA6"></path></g><g transform="translate(485 233)"><path d="M0 -11L4.8 -9.9L8.6 -6.9L10.7 -2.4L10.7 2.4L8.6 6.9L4.8 9.9L0 11L-4.8 9.9L-8.6 6.9L-10.7 2.4L-10.7 -2.4L-8.6 -6.9L-4.8 -9.9Z" fill="#297EA6"></path></g><g transform="translate(677 166)"><path d="M0 -6L2.6 -5.4L4.7 -3.7L5.8 -1.3L5.8 1.3L4.7 3.7L2.6 5.4L0 6L-2.6 5.4L-4.7 3.7L-5.8 1.3L-5.8 -1.3L-4.7 -3.7L-2.6 -5.4Z" fill="#297EA6"></path></g><g transform="translate(908 310)"><path d="M0 -9L3.9 -8.1L7 -5.6L8.8 -2L8.8 2L7 5.6L3.9 8.1L0 9L-3.9 8.1L-7 5.6L-8.8 2L-8.8 -2L-7 -5.6L-3.9 -8.1Z" fill="#297EA6"></path></g><g transform="translate(858 376)"><path d="M0 -11L4.8 -9.9L8.6 -6.9L10.7 -2.4L10.7 2.4L8.6 6.9L4.8 9.9L0 11L-4.8 9.9L-8.6 6.9L-10.7 2.4L-10.7 -2.4L-8.6 -6.9L-4.8 -9.9Z" fill="#297EA6"></path></g><g transform="translate(484 200)"><path d="M0 -11L4.8 -9.9L8.6 -6.9L10.7 -2.4L10.7 2.4L8.6 6.9L4.8 9.9L0 11L-4.8 9.9L-8.6 6.9L-10.7 2.4L-10.7 -2.4L-8.6 -6.9L-4.8 -9.9Z" fill="#297EA6"></path></g><g transform="translate(821 324)"><path d="M0 -2L0.9 -1.8L1.6 -1.2L1.9 -0.4L1.9 0.4L1.6 1.2L0.9 1.8L0 2L-0.9 1.8L-1.6 1.2L-1.9 0.4L-1.9 -0.4L-1.6 -1.2L-0.9 -1.8Z" fill="#297EA6"></path></g><g transform="translate(945 22)"><path d="M0 -6L2.6 -5.4L4.7 -3.7L5.8 -1.3L5.8 1.3L4.7 3.7L2.6 5.4L0 6L-2.6 5.4L-4.7 3.7L-5.8 1.3L-5.8 -1.3L-4.7 -3.7L-2.6 -5.4Z" fill="#297EA6"></path></g><g transform="translate(872 72)"><path d="M0 -6L2.6 -5.4L4.7 -3.7L5.8 -1.3L5.8 1.3L4.7 3.7L2.6 5.4L0 6L-2.6 5.4L-4.7 3.7L-5.8 1.3L-5.8 -1.3L-4.7 -3.7L-2.6 -5.4Z" fill="#297EA6"></path></g><g transform="translate(946 524)"><path d="M0 -4L1.7 -3.6L3.1 -2.5L3.9 -0.9L3.9 0.9L3.1 2.5L1.7 3.6L0 4L-1.7 3.6L-3.1 2.5L-3.9 0.9L-3.9 -0.9L-3.1 -2.5L-1.7 -3.6Z" fill="#297EA6"></path></g><g transform="translate(524 22)"><path d="M0 -11L4.8 -9.9L8.6 -6.9L10.7 -2.4L10.7 2.4L8.6 6.9L4.8 9.9L0 11L-4.8 9.9L-8.6 6.9L-10.7 2.4L-10.7 -2.4L-8.6 -6.9L-4.8 -9.9Z" fill="#297EA6"></path></g><g transform="translate(552 526)"><path d="M0 -8L3.5 -7.2L6.3 -5L7.8 -1.8L7.8 1.8L6.3 5L3.5 7.2L0 8L-3.5 7.2L-6.3 5L-7.8 1.8L-7.8 -1.8L-6.3 -5L-3.5 -7.2Z" fill="#297EA6"></path></g><g transform="translate(756 204)"><path d="M0 -11L4.8 -9.9L8.6 -6.9L10.7 -2.4L10.7 2.4L8.6 6.9L4.8 9.9L0 11L-4.8 9.9L-8.6 6.9L-10.7 2.4L-10.7 -2.4L-8.6 -6.9L-4.8 -9.9Z" fill="#297EA6"></path></g><g transform="translate(708 437)"><path d="M0 -2L0.9 -1.8L1.6 -1.2L1.9 -0.4L1.9 0.4L1.6 1.2L0.9 1.8L0 2L-0.9 1.8L-1.6 1.2L-1.9 0.4L-1.9 -0.4L-1.6 -1.2L-0.9 -1.8Z" fill="#297EA6"></path></g><g transform="translate(942 82)"><path d="M0 -1L0.4 -0.9L0.8 -0.6L1 -0.2L1 0.2L0.8 0.6L0.4 0.9L0 1L-0.4 0.9L-0.8 0.6L-1 0.2L-1 -0.2L-0.8 -0.6L-0.4 -0.9Z" fill="#297EA6"></path></g><g transform="translate(13 282)"><path d="M0 -10L4.3 -9L7.8 -6.2L9.7 -2.2L9.7 2.2L7.8 6.2L4.3 9L0 10L-4.3 9L-7.8 6.2L-9.7 2.2L-9.7 -2.2L-7.8 -6.2L-4.3 -9Z" fill="#297EA6"></path></g><g transform="translate(650 347)"><path d="M0 -2L0.9 -1.8L1.6 -1.2L1.9 -0.4L1.9 0.4L1.6 1.2L0.9 1.8L0 2L-0.9 1.8L-1.6 1.2L-1.9 0.4L-1.9 -0.4L-1.6 -1.2L-0.9 -1.8Z" fill="#297EA6"></path></g><g transform="translate(220 424)"><path d="M0 -5L2.2 -4.5L3.9 -3.1L4.9 -1.1L4.9 1.1L3.9 3.1L2.2 4.5L0 5L-2.2 4.5L-3.9 3.1L-4.9 1.1L-4.9 -1.1L-3.9 -3.1L-2.2 -4.5Z" fill="#297EA6"></path></g><g transform="translate(600 480)"><path d="M0 -4L1.7 -3.6L3.1 -2.5L3.9 -0.9L3.9 0.9L3.1 2.5L1.7 3.6L0 4L-1.7 3.6L-3.1 2.5L-3.9 0.9L-3.9 -0.9L-3.1 -2.5L-1.7 -3.6Z" fill="#297EA6"></path></g><g transform="translate(722 332)"><path d="M0 -1L0.4 -0.9L0.8 -0.6L1 -0.2L1 0.2L0.8 0.6L0.4 0.9L0 1L-0.4 0.9L-0.8 0.6L-1 0.2L-1 -0.2L-0.8 -0.6L-0.4 -0.9Z" fill="#297EA6"></path></g><g transform="translate(762 157)"><path d="M0 -7L3 -6.3L5.5 -4.4L6.8 -1.6L6.8 1.6L5.5 4.4L3 6.3L0 7L-3 6.3L-5.5 4.4L-6.8 1.6L-6.8 -1.6L-5.5 -4.4L-3 -6.3Z" fill="#297EA6"></path></g><g transform="translate(884 331)"><path d="M0 -5L2.2 -4.5L3.9 -3.1L4.9 -1.1L4.9 1.1L3.9 3.1L2.2 4.5L0 5L-2.2 4.5L-3.9 3.1L-4.9 1.1L-4.9 -1.1L-3.9 -3.1L-2.2 -4.5Z" fill="#297EA6"></path></g><g transform="translate(700 225)"><path d="M0 -7L3 -6.3L5.5 -4.4L6.8 -1.6L6.8 1.6L5.5 4.4L3 6.3L0 7L-3 6.3L-5.5 4.4L-6.8 1.6L-6.8 -1.6L-5.5 -4.4L-3 -6.3Z" fill="#297EA6"></path></g><g transform="translate(150 111)"><path d="M0 -7L3 -6.3L5.5 -4.4L6.8 -1.6L6.8 1.6L5.5 4.4L3 6.3L0 7L-3 6.3L-5.5 4.4L-6.8 1.6L-6.8 -1.6L-5.5 -4.4L-3 -6.3Z" fill="#297EA6"></path></g><g transform="translate(897 527)"><path d="M0 -11L4.8 -9.9L8.6 -6.9L10.7 -2.4L10.7 2.4L8.6 6.9L4.8 9.9L0 11L-4.8 9.9L-8.6 6.9L-10.7 2.4L-10.7 -2.4L-8.6 -6.9L-4.8 -9.9Z" fill="#297EA6"></path></g><g transform="translate(51 98)"><path d="M0 -9L3.9 -8.1L7 -5.6L8.8 -2L8.8 2L7 5.6L3.9 8.1L0 9L-3.9 8.1L-7 5.6L-8.8 2L-8.8 -2L-7 -5.6L-3.9 -8.1Z" fill="#297EA6"></path></g><g transform="translate(273 443)"><path d="M0 -9L3.9 -8.1L7 -5.6L8.8 -2L8.8 2L7 5.6L3.9 8.1L0 9L-3.9 8.1L-7 5.6L-8.8 2L-8.8 -2L-7 -5.6L-3.9 -8.1Z" fill="#297EA6"></path></g><g transform="translate(809 79)"><path d="M0 -6L2.6 -5.4L4.7 -3.7L5.8 -1.3L5.8 1.3L4.7 3.7L2.6 5.4L0 6L-2.6 5.4L-4.7 3.7L-5.8 1.3L-5.8 -1.3L-4.7 -3.7L-2.6 -5.4Z" fill="#297EA6"></path></g><g transform="translate(475 375)"><path d="M0 -6L2.6 -5.4L4.7 -3.7L5.8 -1.3L5.8 1.3L4.7 3.7L2.6 5.4L0 6L-2.6 5.4L-4.7 3.7L-5.8 1.3L-5.8 -1.3L-4.7 -3.7L-2.6 -5.4Z" fill="#297EA6"></path></g><g transform="translate(812 238)"><path d="M0 -2L0.9 -1.8L1.6 -1.2L1.9 -0.4L1.9 0.4L1.6 1.2L0.9 1.8L0 2L-0.9 1.8L-1.6 1.2L-1.9 0.4L-1.9 -0.4L-1.6 -1.2L-0.9 -1.8Z" fill="#297EA6"></path></g><g transform="translate(562 176)"><path d="M0 -2L0.9 -1.8L1.6 -1.2L1.9 -0.4L1.9 0.4L1.6 1.2L0.9 1.8L0 2L-0.9 1.8L-1.6 1.2L-1.9 0.4L-1.9 -0.4L-1.6 -1.2L-0.9 -1.8Z" fill="#297EA6"></path></g><g transform="translate(636 496)"><path d="M0 -10L4.3 -9L7.8 -6.2L9.7 -2.2L9.7 2.2L7.8 6.2L4.3 9L0 10L-4.3 9L-7.8 6.2L-9.7 2.2L-9.7 -2.2L-7.8 -6.2L-4.3 -9Z" fill="#297EA6"></path></g><g transform="translate(392 215)"><path d="M0 -5L2.2 -4.5L3.9 -3.1L4.9 -1.1L4.9 1.1L3.9 3.1L2.2 4.5L0 5L-2.2 4.5L-3.9 3.1L-4.9 1.1L-4.9 -1.1L-3.9 -3.1L-2.2 -4.5Z" fill="#297EA6"></path></g><g transform="translate(591 218)"><path d="M0 -2L0.9 -1.8L1.6 -1.2L1.9 -0.4L1.9 0.4L1.6 1.2L0.9 1.8L0 2L-0.9 1.8L-1.6 1.2L-1.9 0.4L-1.9 -0.4L-1.6 -1.2L-0.9 -1.8Z" fill="#297EA6"></path></g><g transform="translate(226 194)"><path d="M0 -9L3.9 -8.1L7 -5.6L8.8 -2L8.8 2L7 5.6L3.9 8.1L0 9L-3.9 8.1L-7 5.6L-8.8 2L-8.8 -2L-7 -5.6L-3.9 -8.1Z" fill="#297EA6"></path></g><g transform="translate(191 381)"><path d="M0 -10L4.3 -9L7.8 -6.2L9.7 -2.2L9.7 2.2L7.8 6.2L4.3 9L0 10L-4.3 9L-7.8 6.2L-9.7 2.2L-9.7 -2.2L-7.8 -6.2L-4.3 -9Z" fill="#297EA6"></path></g><g transform="translate(724 92)"><path d="M0 -3L1.3 -2.7L2.3 -1.9L2.9 -0.7L2.9 0.7L2.3 1.9L1.3 2.7L0 3L-1.3 2.7L-2.3 1.9L-2.9 0.7L-2.9 -0.7L-2.3 -1.9L-1.3 -2.7Z" fill="#297EA6"></path></g><g transform="translate(892 466)"><path d="M0 -9L3.9 -8.1L7 -5.6L8.8 -2L8.8 2L7 5.6L3.9 8.1L0 9L-3.9 8.1L-7 5.6L-8.8 2L-8.8 -2L-7 -5.6L-3.9 -8.1Z" fill="#297EA6"></path></g><g transform="translate(100 75)"><path d="M0 -6L2.6 -5.4L4.7 -3.7L5.8 -1.3L5.8 1.3L4.7 3.7L2.6 5.4L0 6L-2.6 5.4L-4.7 3.7L-5.8 1.3L-5.8 -1.3L-4.7 -3.7L-2.6 -5.4Z" fill="#297EA6"></path></g><g transform="translate(490 60)"><path d="M0 -10L4.3 -9L7.8 -6.2L9.7 -2.2L9.7 2.2L7.8 6.2L4.3 9L0 10L-4.3 9L-7.8 6.2L-9.7 2.2L-9.7 -2.2L-7.8 -6.2L-4.3 -9Z" fill="#297EA6"></path></g><g transform="translate(440 148)"><path d="M0 -11L4.8 -9.9L8.6 -6.9L10.7 -2.4L10.7 2.4L8.6 6.9L4.8 9.9L0 11L-4.8 9.9L-8.6 6.9L-10.7 2.4L-10.7 -2.4L-8.6 -6.9L-4.8 -9.9Z" fill="#297EA6"></path></g><g transform="translate(401 525)"><path d="M0 -5L2.2 -4.5L3.9 -3.1L4.9 -1.1L4.9 1.1L3.9 3.1L2.2 4.5L0 5L-2.2 4.5L-3.9 3.1L-4.9 1.1L-4.9 -1.1L-3.9 -3.1L-2.2 -4.5Z" fill="#297EA6"></path></g><g transform="translate(413 501)"><path d="M0 -10L4.3 -9L7.8 -6.2L9.7 -2.2L9.7 2.2L7.8 6.2L4.3 9L0 10L-4.3 9L-7.8 6.2L-9.7 2.2L-9.7 -2.2L-7.8 -6.2L-4.3 -9Z" fill="#297EA6"></path></g><g transform="translate(462 527)"><path d="M0 -9L3.9 -8.1L7 -5.6L8.8 -2L8.8 2L7 5.6L3.9 8.1L0 9L-3.9 8.1L-7 5.6L-8.8 2L-8.8 -2L-7 -5.6L-3.9 -8.1Z" fill="#297EA6"></path></g><g transform="translate(945 265)"><path d="M0 -10L4.3 -9L7.8 -6.2L9.7 -2.2L9.7 2.2L7.8 6.2L4.3 9L0 10L-4.3 9L-7.8 6.2L-9.7 2.2L-9.7 -2.2L-7.8 -6.2L-4.3 -9Z" fill="#297EA6"></path></g><g transform="translate(937 465)"><path d="M0 -3L1.3 -2.7L2.3 -1.9L2.9 -0.7L2.9 0.7L2.3 1.9L1.3 2.7L0 3L-1.3 2.7L-2.3 1.9L-2.9 0.7L-2.9 -0.7L-2.3 -1.9L-1.3 -2.7Z" fill="#297EA6"></path></g><g transform="translate(157 290)"><path d="M0 -10L4.3 -9L7.8 -6.2L9.7 -2.2L9.7 2.2L7.8 6.2L4.3 9L0 10L-4.3 9L-7.8 6.2L-9.7 2.2L-9.7 -2.2L-7.8 -6.2L-4.3 -9Z" fill="#297EA6"></path></g><g transform="translate(301 378)"><path d="M0 -5L2.2 -4.5L3.9 -3.1L4.9 -1.1L4.9 1.1L3.9 3.1L2.2 4.5L0 5L-2.2 4.5L-3.9 3.1L-4.9 1.1L-4.9 -1.1L-3.9 -3.1L-2.2 -4.5Z" fill="#297EA6"></path></g><g transform="translate(713 14)"><path d="M0 -6L2.6 -5.4L4.7 -3.7L5.8 -1.3L5.8 1.3L4.7 3.7L2.6 5.4L0 6L-2.6 5.4L-4.7 3.7L-5.8 1.3L-5.8 -1.3L-4.7 -3.7L-2.6 -5.4Z" fill="#297EA6"></path></g><g transform="translate(448 15)"><path d="M0 -2L0.9 -1.8L1.6 -1.2L1.9 -0.4L1.9 0.4L1.6 1.2L0.9 1.8L0 2L-0.9 1.8L-1.6 1.2L-1.9 0.4L-1.9 -0.4L-1.6 -1.2L-0.9 -1.8Z" fill="#297EA6"></path></g><g transform="translate(110 270)"><path d="M0 -9L3.9 -8.1L7 -5.6L8.8 -2L8.8 2L7 5.6L3.9 8.1L0 9L-3.9 8.1L-7 5.6L-8.8 2L-8.8 -2L-7 -5.6L-3.9 -8.1Z" fill="#297EA6"></path></g><g transform="translate(133 197)"><path d="M0 -10L4.3 -9L7.8 -6.2L9.7 -2.2L9.7 2.2L7.8 6.2L4.3 9L0 10L-4.3 9L-7.8 6.2L-9.7 2.2L-9.7 -2.2L-7.8 -6.2L-4.3 -9Z" fill="#297EA6"></path></g><g transform="translate(918 18)"><path d="M0 -11L4.8 -9.9L8.6 -6.9L10.7 -2.4L10.7 2.4L8.6 6.9L4.8 9.9L0 11L-4.8 9.9L-8.6 6.9L-10.7 2.4L-10.7 -2.4L-8.6 -6.9L-4.8 -9.9Z" fill="#297EA6"></path></g><g transform="translate(361 168)"><path d="M0 -3L1.3 -2.7L2.3 -1.9L2.9 -0.7L2.9 0.7L2.3 1.9L1.3 2.7L0 3L-1.3 2.7L-2.3 1.9L-2.9 0.7L-2.9 -0.7L-2.3 -1.9L-1.3 -2.7Z" fill="#297EA6"></path></g><g transform="translate(324 271)"><path d="M0 -8L3.5 -7.2L6.3 -5L7.8 -1.8L7.8 1.8L6.3 5L3.5 7.2L0 8L-3.5 7.2L-6.3 5L-7.8 1.8L-7.8 -1.8L-6.3 -5L-3.5 -7.2Z" fill="#297EA6"></path></g><g transform="translate(18 462)"><path d="M0 -1L0.4 -0.9L0.8 -0.6L1 -0.2L1 0.2L0.8 0.6L0.4 0.9L0 1L-0.4 0.9L-0.8 0.6L-1 0.2L-1 -0.2L-0.8 -0.6L-0.4 -0.9Z" fill="#297EA6"></path></g><g transform="translate(775 15)"><path d="M0 -1L0.4 -0.9L0.8 -0.6L1 -0.2L1 0.2L0.8 0.6L0.4 0.9L0 1L-0.4 0.9L-0.8 0.6L-1 0.2L-1 -0.2L-0.8 -0.6L-0.4 -0.9Z" fill="#297EA6"></path></g><g transform="translate(14 509)"><path d="M0 -2L0.9 -1.8L1.6 -1.2L1.9 -0.4L1.9 0.4L1.6 1.2L0.9 1.8L0 2L-0.9 1.8L-1.6 1.2L-1.9 0.4L-1.9 -0.4L-1.6 -1.2L-0.9 -1.8Z" fill="#297EA6"></path></g><g transform="translate(348 60)"><path d="M0 -1L0.4 -0.9L0.8 -0.6L1 -0.2L1 0.2L0.8 0.6L0.4 0.9L0 1L-0.4 0.9L-0.8 0.6L-1 0.2L-1 -0.2L-0.8 -0.6L-0.4 -0.9Z" fill="#297EA6"></path></g><g transform="translate(109 330)"><path d="M0 -1L0.4 -0.9L0.8 -0.6L1 -0.2L1 0.2L0.8 0.6L0.4 0.9L0 1L-0.4 0.9L-0.8 0.6L-1 0.2L-1 -0.2L-0.8 -0.6L-0.4 -0.9Z" fill="#297EA6"></path></g><g transform="translate(561 404)"><path d="M0 -6L2.6 -5.4L4.7 -3.7L5.8 -1.3L5.8 1.3L4.7 3.7L2.6 5.4L0 6L-2.6 5.4L-4.7 3.7L-5.8 1.3L-5.8 -1.3L-4.7 -3.7L-2.6 -5.4Z" fill="#297EA6"></path></g><g transform="translate(227 106)"><path d="M0 -6L2.6 -5.4L4.7 -3.7L5.8 -1.3L5.8 1.3L4.7 3.7L2.6 5.4L0 6L-2.6 5.4L-4.7 3.7L-5.8 1.3L-5.8 -1.3L-4.7 -3.7L-2.6 -5.4Z" fill="#297EA6"></path></g><g transform="translate(25 199)"><path d="M0 -2L0.9 -1.8L1.6 -1.2L1.9 -0.4L1.9 0.4L1.6 1.2L0.9 1.8L0 2L-0.9 1.8L-1.6 1.2L-1.9 0.4L-1.9 -0.4L-1.6 -1.2L-0.9 -1.8Z" fill="#297EA6"></path></g><g transform="translate(483 173)"><path d="M0 -4L1.7 -3.6L3.1 -2.5L3.9 -0.9L3.9 0.9L3.1 2.5L1.7 3.6L0 4L-1.7 3.6L-3.1 2.5L-3.9 0.9L-3.9 -0.9L-3.1 -2.5L-1.7 -3.6Z" fill="#297EA6"></path></g><g transform="translate(285 93)"><path d="M0 -1L0.4 -0.9L0.8 -0.6L1 -0.2L1 0.2L0.8 0.6L0.4 0.9L0 1L-0.4 0.9L-0.8 0.6L-1 0.2L-1 -0.2L-0.8 -0.6L-0.4 -0.9Z" fill="#297EA6"></path></g><g transform="translate(418 294)"><path d="M0 -5L2.2 -4.5L3.9 -3.1L4.9 -1.1L4.9 1.1L3.9 3.1L2.2 4.5L0 5L-2.2 4.5L-3.9 3.1L-4.9 1.1L-4.9 -1.1L-3.9 -3.1L-2.2 -4.5Z" fill="#297EA6"></path></g><g transform="translate(247 281)"><path d="M0 -6L2.6 -5.4L4.7 -3.7L5.8 -1.3L5.8 1.3L4.7 3.7L2.6 5.4L0 6L-2.6 5.4L-4.7 3.7L-5.8 1.3L-5.8 -1.3L-4.7 -3.7L-2.6 -5.4Z" fill="#297EA6"></path></g><g transform="translate(716 490)"><path d="M0 -9L3.9 -8.1L7 -5.6L8.8 -2L8.8 2L7 5.6L3.9 8.1L0 9L-3.9 8.1L-7 5.6L-8.8 2L-8.8 -2L-7 -5.6L-3.9 -8.1Z" fill="#297EA6"></path></g><g transform="translate(221 337)"><path d="M0 -4L1.7 -3.6L3.1 -2.5L3.9 -0.9L3.9 0.9L3.1 2.5L1.7 3.6L0 4L-1.7 3.6L-3.1 2.5L-3.9 0.9L-3.9 -0.9L-3.1 -2.5L-1.7 -3.6Z" fill="#297EA6"></path></g><g transform="translate(78 179)"><path d="M0 -6L2.6 -5.4L4.7 -3.7L5.8 -1.3L5.8 1.3L4.7 3.7L2.6 5.4L0 6L-2.6 5.4L-4.7 3.7L-5.8 1.3L-5.8 -1.3L-4.7 -3.7L-2.6 -5.4Z" fill="#297EA6"></path></g><g transform="translate(427 344)"><path d="M0 -3L1.3 -2.7L2.3 -1.9L2.9 -0.7L2.9 0.7L2.3 1.9L1.3 2.7L0 3L-1.3 2.7L-2.3 1.9L-2.9 0.7L-2.9 -0.7L-2.3 -1.9L-1.3 -2.7Z" fill="#297EA6"></path></g><g transform="translate(790 523)"><path d="M0 -3L1.3 -2.7L2.3 -1.9L2.9 -0.7L2.9 0.7L2.3 1.9L1.3 2.7L0 3L-1.3 2.7L-2.3 1.9L-2.9 0.7L-2.9 -0.7L-2.3 -1.9L-1.3 -2.7Z" fill="#297EA6"></path></g><g transform="translate(630 114)"><path d="M0 -1L0.4 -0.9L0.8 -0.6L1 -0.2L1 0.2L0.8 0.6L0.4 0.9L0 1L-0.4 0.9L-0.8 0.6L-1 0.2L-1 -0.2L-0.8 -0.6L-0.4 -0.9Z" fill="#297EA6"></path></g><g transform="translate(371 14)"><path d="M0 -1L0.4 -0.9L0.8 -0.6L1 -0.2L1 0.2L0.8 0.6L0.4 0.9L0 1L-0.4 0.9L-0.8 0.6L-1 0.2L-1 -0.2L-0.8 -0.6L-0.4 -0.9Z" fill="#297EA6"></path></g><g transform="translate(537 451)"><path d="M0 -2L0.9 -1.8L1.6 -1.2L1.9 -0.4L1.9 0.4L1.6 1.2L0.9 1.8L0 2L-0.9 1.8L-1.6 1.2L-1.9 0.4L-1.9 -0.4L-1.6 -1.2L-0.9 -1.8Z" fill="#297EA6"></path></g><g transform="translate(122 498)"><path d="M0 -4L1.7 -3.6L3.1 -2.5L3.9 -0.9L3.9 0.9L3.1 2.5L1.7 3.6L0 4L-1.7 3.6L-3.1 2.5L-3.9 0.9L-3.9 -0.9L-3.1 -2.5L-1.7 -3.6Z" fill="#297EA6"></path></g></g></svg>